<svg version="1.1" xmlns="http://www.w3.org/2000/svg" width='24' height='24' fill='#fafafa'>
      <path d="M0 0 C1.8871875 0.00773438 1.8871875 0.00773438 3.8125 0.015625 C5.070625 0.01046875 6.32875 0.0053125 7.625 0 C10.8125 0.265625 10.8125 0.265625 12.8125 2.265625 C12.82421875 5.49609375 12.82421875 5.49609375 12.5 9.453125 C12.40074219 10.74605469 12.30148438 12.03898437 12.19921875 13.37109375 C11.83599047 17.02905937 11.36379945 20.63270299 10.8125 24.265625 C11.27100342 23.90210937 11.72950684 23.53859375 12.2019043 23.1640625 C14.29167171 21.51861787 16.3954527 19.89211587 18.5 18.265625 C19.22123047 17.69328125 19.94246094 17.1209375 20.68554688 16.53125 C21.39130859 15.98984375 22.09707031 15.4484375 22.82421875 14.890625 C23.46834717 14.38789063 24.11247559 13.88515625 24.77612305 13.3671875 C27.32716148 11.98722282 28.95167314 11.9005251 31.8125 12.265625 C35.36443889 15.91904786 37.53058414 19.292214 38.25 24.328125 C38.105625 25.2975 37.96125 26.266875 37.8125 27.265625 C34.03707727 29.97253186 29.76818591 31.67288268 25.5 33.453125 C24.85482422 33.72576172 24.20964844 33.99839844 23.54492188 34.27929688 C21.96885451 34.94474754 20.3908709 35.60565665 18.8125 36.265625 C19.864375 36.73742188 19.864375 36.73742188 20.9375 37.21875 C26.62741574 39.78539677 32.2506239 42.43221642 37.8125 45.265625 C38.5565423 51.21796339 36.18215168 54.63649695 32.8125 59.265625 C31.8125 60.265625 31.8125 60.265625 29.2109375 60.671875 C24.45585533 60.10345138 22.0102327 57.80132898 18.4375 54.765625 C17.79683594 54.24097656 17.15617187 53.71632812 16.49609375 53.17578125 C14.92414828 51.88537825 13.36681474 50.57721113 11.8125 49.265625 C11.8532666 49.89130371 11.8940332 50.51698242 11.93603516 51.16162109 C12.11405726 53.98739382 12.27597078 56.81386361 12.4375 59.640625 C12.53417969 61.11789063 12.53417969 61.11789063 12.6328125 62.625 C12.684375 63.56601563 12.7359375 64.50703125 12.7890625 65.4765625 C12.84143066 66.34587402 12.89379883 67.21518555 12.94775391 68.11083984 C12.8125 70.265625 12.8125 70.265625 10.8125 72.265625 C7.625 72.53125 7.625 72.53125 3.8125 72.515625 C2.554375 72.52078125 1.29625 72.5259375 0 72.53125 C-3.1875 72.265625 -3.1875 72.265625 -5.1875 70.265625 C-5.32275391 68.11083984 -5.32275391 68.11083984 -5.1640625 65.4765625 C-5.1125 64.53554687 -5.0609375 63.59453125 -5.0078125 62.625 C-4.94335938 61.64015625 -4.87890625 60.6553125 -4.8125 59.640625 C-4.75578125 58.64804688 -4.6990625 57.65546875 -4.640625 56.6328125 C-4.49890759 54.17637733 -4.34747723 51.72092765 -4.1875 49.265625 C-5.12851562 50.0596875 -6.06953125 50.85375 -7.0390625 51.671875 C-8.2962462 52.70389147 -9.55409398 53.73509934 -10.8125 54.765625 C-11.42996094 55.29027344 -12.04742188 55.81492188 -12.68359375 56.35546875 C-15.74237407 58.8346907 -17.53877908 60.17098807 -21.5078125 60.75 C-24.1875 60.265625 -24.1875 60.265625 -26.4375 58.015625 C-27.015 57.108125 -27.5925 56.200625 -28.1875 55.265625 C-28.80625 54.3065625 -28.80625 54.3065625 -29.4375 53.328125 C-30.43463635 50.58600005 -30.31894145 48.15733693 -30.1875 45.265625 C-23.92926735 42.07771526 -17.62826534 39.06599608 -11.1875 36.265625 C-12.39148438 35.78351562 -13.59546875 35.30140625 -14.8359375 34.8046875 C-16.41156618 34.16693304 -17.98708114 33.52889759 -19.5625 32.890625 C-20.3565625 32.57351562 -21.150625 32.25640625 -21.96875 31.9296875 C-22.72929687 31.6203125 -23.48984375 31.3109375 -24.2734375 30.9921875 C-25.3260376 30.56800537 -25.3260376 30.56800537 -26.39990234 30.13525391 C-28.1875 29.265625 -28.1875 29.265625 -30.1875 27.265625 C-31.05979715 22.03184211 -29.18461194 19.0989121 -26.37890625 14.90234375 C-25.1875 13.265625 -25.1875 13.265625 -24.1875 12.265625 C-17.81989875 12.45030953 -14.5142997 14.78981383 -9.75 18.828125 C-9.11384766 19.34826172 -8.47769531 19.86839844 -7.82226562 20.40429688 C-6.2670122 21.67890306 -4.72577175 22.97057513 -3.1875 24.265625 C-3.331875 23.26402344 -3.47625 22.26242188 -3.625 21.23046875 C-3.81275007 19.88805578 -4.00023594 18.54560585 -4.1875 17.203125 C-4.28289063 16.54634766 -4.37828125 15.88957031 -4.4765625 15.21289062 C-5.07630474 10.86475936 -5.450349 6.65191766 -5.1875 2.265625 C-3.1875 0.265625 -3.1875 0.265625 0 0 Z " fill="#9B58B6" transform="translate(41.1875,8.734375)" />
    </svg>