<svg version="1.1" xmlns="http://www.w3.org/2000/svg" width='24' height='24' viewBox="0 0 24 24" fill='#fafafa'>
  <path
				d="M0 0 C0.8245166 -0.00478363 1.6490332 -0.00956726 2.49853516 -0.01449585 C4.23667313 -0.01788872 5.97487544 -0.00872903 7.71289062 0.01220703 C10.36733825 0.03898521 13.01755825 0.01244254 15.671875 -0.01953125 C17.36459263 -0.01622704 19.05730763 -0.00982056 20.75 0 C21.93456787 -0.01518173 21.93456787 -0.01518173 23.14306641 -0.03067017 C27.11276955 0.05339275 28.99170918 0.40801499 32.37255859 2.66650391 C35.0441572 6.66575868 35.09944932 9.57732793 35.0390625 14.2890625 C35.04384613 15.1135791 35.04862976 15.9380957 35.05355835 16.78759766 C35.05695122 18.52573563 35.04779153 20.26393794 35.02685547 22.00195312 C35.00007729 24.65640075 35.02661996 27.30662075 35.05859375 29.9609375 C35.05528954 31.65365513 35.04888306 33.34637013 35.0390625 35.0390625 C35.04918365 35.82877441 35.05930481 36.61848633 35.06973267 37.43212891 C34.98566975 41.40183205 34.63104751 43.28077168 32.37255859 46.66162109 C28.37330382 49.3332197 25.46173457 49.38851182 20.75 49.328125 C19.5132251 49.33530045 19.5132251 49.33530045 18.25146484 49.34262085 C16.51332687 49.34601372 14.77512456 49.33685403 13.03710938 49.31591797 C10.38266175 49.28913979 7.73244175 49.31568246 5.078125 49.34765625 C3.38540737 49.34435204 1.69269237 49.33794556 0 49.328125 C-0.78971191 49.33824615 -1.57942383 49.34836731 -2.39306641 49.35879517 C-6.36276955 49.27473225 -8.24170918 48.92011001 -11.62255859 46.66162109 C-14.2941572 42.66236632 -14.34944932 39.75079707 -14.2890625 35.0390625 C-14.29384613 34.2145459 -14.29862976 33.3900293 -14.30355835 32.54052734 C-14.30695122 30.80238937 -14.29779153 29.06418706 -14.27685547 27.32617188 C-14.25007729 24.67172425 -14.27661996 22.02150425 -14.30859375 19.3671875 C-14.30528954 17.67446987 -14.29888306 15.98175487 -14.2890625 14.2890625 C-14.29918365 13.49935059 -14.30930481 12.70963867 -14.31973267 11.89599609 C-14.23566975 7.92629295 -13.88104751 6.04735332 -11.62255859 2.66650391 C-7.62330382 -0.0050947 -4.71173457 -0.06038682 0 0 Z "
				fill="#343434"
				transform="translate(13.625,-0.6640625)"
			/>
    <path
				d="M0 0 C3.3 0 6.6 0 10 0 C10 0.99 10 1.98 10 3 C9.01 3 8.02 3 7 3 C7 12.24 7 21.48 7 31 C7.99 31 8.98 31 10 31 C10 31.99 10 32.98 10 34 C6.7 34 3.4 34 0 34 C0 32.68 0 31.36 0 30 C-7.59 30 -15.18 30 -23 30 C-23 21.42 -23 12.84 -23 4 C-14.75 4 -6.5 4 2 4 C2 5.32 2 6.64 2 8 C-4.93 8 -11.86 8 -19 8 C-19 13.61 -19 19.22 -19 25 C-12.73 24.67 -6.46 24.34 0 24 C0 22.68 0 21.36 0 20 C0.99 20 1.98 20 3 20 C3 14.39 3 8.78 3 3 C2.01 3 1.02 3 0 3 C0 2.01 0 1.02 0 0 Z "
				fill="#909090"
				transform="translate(29,7)"
			/>
      <path
				d="M0 0 C6.93 0 13.86 0 21 0 C21 1.98 21 3.96 21 6 C21.33 6.33 21.66 6.66 22 7 C22.04063832 8.66617115 22.042721 10.33388095 22 12 C21.01 12 20.02 12 19 12 C19 13.32 19 14.64 19 16 C19.66 16.33 20.32 16.66 21 17 C14.07 17 7.14 17 0 17 C0 11.39 0 5.78 0 0 Z "
				fill="#3D3D3D"
				transform="translate(10,15)"
			/>
        <path d="M0 0 C8.25 0 16.5 0 25 0 C25 1.32 25 2.64 25 4 C17.74 4 10.48 4 3 4 C3 9.94 3 15.88 3 22 C10.26 22 17.52 22 25 22 C25 22.99 25 23.98 25 25 C16.75 25 8.5 25 0 25 C0 16.75 0 8.5 0 0 Z " fill="#EDEDED" transform="translate(6,11)" />
          <path
				d="M0 0 C6.6 0 13.2 0 20 0 C20 1.65 20 3.3 20 5 C19.01 5 18.02 5 17 5 C17 5.99 17 6.98 17 8 C13.93466836 9.53266582 10.73245728 9.10276471 7.375 9.0625 C6.66859375 9.05798828 5.9621875 9.05347656 5.234375 9.04882812 C3.48954725 9.03703875 1.744763 9.01910324 0 9 C0 6.03 0 3.06 0 0 Z "
				fill="#40495A"
				transform="translate(12,22)"
			/>
            <path
				d="M0 0 C2.97 0 5.94 0 9 0 C9 0.99 9 1.98 9 3 C8.01 3 7.02 3 6 3 C6 12.24 6 21.48 6 31 C6.99 31 7.98 31 9 31 C9 31.66 9 32.32 9 33 C6.03 33 3.06 33 0 33 C0 32.34 0 31.68 0 31 C0.99 31 1.98 31 3 31 C3 21.43 3 11.86 3 2 C2.01 2 1.02 2 0 2 C0 1.34 0 0.68 0 0 Z "
				fill="#E8E8E8"
				transform="translate(30,7)"
			/>
              <path d="M0 0 C1.65 0 3.3 0 5 0 C5 8.25 5 16.5 5 25 C3.35 25 1.7 25 0 25 C0 16.75 0 8.5 0 0 Z " fill="#E1E1E1" transform="translate(37,11)" />
                <path
				d="M0 0 C6.27 0 12.54 0 19 0 C19 1.32 19 2.64 19 4 C17.37509046 4.02698189 15.75005367 4.04638757 14.125 4.0625 C13.22007813 4.07410156 12.31515625 4.08570313 11.3828125 4.09765625 C9 4 9 4 7 3 C4.6670134 2.95977609 2.33293334 2.95679753 0 3 C0 2.01 0 1.02 0 0 Z "
				fill="#7F94B9"
				transform="translate(12,17)"
			/>
                  <path d="M0 0 C3.63 0 7.26 0 11 0 C11 0.99 11 1.98 11 3 C7.37 3 3.74 3 0 3 C0 2.01 0 1.02 0 0 Z " fill="#5588E3" transform="translate(12,22)" />
                    <path d="M0 0 C2.31 0 4.62 0 7 0 C7 0.99 7 1.98 7 3 C4.69 3 2.38 3 0 3 C0 2.01 0 1.02 0 0 Z " fill="#5486E0" transform="translate(20,27)" />
                      <path d="M0 0 C2.31 0 4.62 0 7 0 C7 0.99 7 1.98 7 3 C4.69 3 2.38 3 0 3 C0 2.01 0 1.02 0 0 Z " fill="#E4E4E4" transform="translate(12,27)" />
                        <path d="M0 0 C-3.63 0 -7.26 0 -11 0 C-11 -0.66 -11 -1.32 -11 -2 C-4.5 -3.375 -4.5 -3.375 0 0 Z " fill="#3B4557" transform="translate(23,22)" />
                          <path d="M0 0 C0.99 0 1.98 0 3 0 C3 3.3 3 6.6 3 10 C2.67 10 2.34 10 2 10 C2 8.02 2 6.04 2 4 C1.34 4 0.68 4 0 4 C0 2.68 0 1.36 0 0 Z " fill="#7E7E7E" transform="translate(29,27)" />
                            <path d="M0 0 C1.98 0 3.96 0 6 0 C6 0.99 6 1.98 6 3 C4.02 3 2.04 3 0 3 C0 2.01 0 1.02 0 0 Z " fill="#5689E5" transform="translate(25,22)" />
                            </svg>
