 
<svg version="1.1" xmlns="http://www.w3.org/2000/svg"   fill='#fafafa'  width='24' height='24'>
<path d="M0 0 C2.54017284 -0.00418004 5.0803438 -0.00966121 7.62051135 -0.01631981 C13.11240532 -0.02771315 18.60418066 -0.02993425 24.09608078 -0.02376938 C32.26338397 -0.01462608 40.43060895 -0.02275201 48.59790618 -0.03406062 C63.1916062 -0.0536709 77.78527058 -0.05608574 92.37898063 -0.05086542 C105.15371869 -0.04629836 117.9284427 -0.04691971 130.70318031 -0.05270576 C132.4204721 -0.05346265 134.13776388 -0.05421863 135.85505566 -0.05497371 C138.44325704 -0.05611898 141.03145841 -0.05726886 143.61965977 -0.05843295 C167.66550926 -0.0691295 191.71135409 -0.07387198 215.75720501 -0.06596279 C216.66258738 -0.06566562 217.56796976 -0.06536844 218.50078796 -0.06506227 C225.85188564 -0.06261364 233.20298327 -0.06000189 240.55408089 -0.05737813 C269.21623671 -0.04727931 297.87833392 -0.05562763 326.54048157 -0.07887268 C358.78740686 -0.10498305 391.03429688 -0.11778303 423.28123313 -0.11068493 C426.72401638 -0.10996894 430.16679964 -0.10929454 433.6095829 -0.10864449 C434.45720194 -0.10847468 435.30482097 -0.10830487 436.17812544 -0.10812991 C448.93658077 -0.10583326 461.6950032 -0.11377361 474.45345116 -0.12693596 C488.97507025 -0.14189113 503.49661258 -0.14263189 518.0182301 -0.12486505 C526.12952527 -0.11534783 534.24064107 -0.11664239 542.35192402 -0.13409974 C548.43187067 -0.1459244 554.51159964 -0.13650505 560.59154103 -0.11927737 C563.0335097 -0.1155371 565.47550039 -0.11838155 567.91744932 -0.12888902 C619.16432755 -0.33352821 669.66304724 16.90717196 709.49092102 49.38768005 C710.0334552 49.82725037 710.57598938 50.26682068 711.13496399 50.7197113 C722.80013418 60.21883494 733.2334455 70.48047988 742.49092102 82.38768005 C743.24244446 83.34545349 743.9939679 84.30322693 744.76826477 85.2900238 C786.44710209 139.50813526 794.68117551 206.60740822 794.62463379 272.97061157 C794.62650662 275.08435125 794.62880918 277.19809059 794.63149911 279.31182939 C794.63756544 285.06753501 794.63748967 290.82322599 794.63630474 296.57893407 C794.6360994 302.80762983 794.64163212 309.03632105 794.6463623 315.26501465 C794.65464155 327.44993326 794.65742895 339.63484527 794.65797468 351.81976613 C794.65843585 361.7351336 794.66050257 371.65049951 794.66367531 381.56586647 C794.66457299 384.42952754 794.6654628 387.29318861 794.66635019 390.15684968 C794.66657123 390.86896173 794.66679228 391.58107378 794.66702003 392.31476497 C794.67316739 412.32385016 794.6771213 432.33293481 794.67667675 452.34202099 C794.67666117 453.09514987 794.67664559 453.84827875 794.67662954 454.62422971 C794.67654645 458.44057554 794.67644741 462.25692136 794.67634483 466.07326718 C794.67631492 467.20997951 794.67631492 467.20997951 794.67628439 468.36965572 C794.67624396 469.90212816 794.67620216 471.43460059 794.676159 472.96707303 C794.67554696 496.78233032 794.68304263 520.59757333 794.69673157 544.41282654 C794.71214045 571.23076779 794.72069487 598.04869968 794.71976835 624.86664563 C794.71969373 627.73439332 794.71964501 630.602141 794.71961403 633.46988869 C794.71960237 634.17588699 794.71959072 634.88188529 794.71957871 635.60927749 C794.71954812 646.90032124 794.72589487 658.19135248 794.73454629 669.48239252 C794.74308341 680.86082139 794.74379647 692.23922732 794.73743697 703.61765941 C794.73419684 709.76440594 794.73402299 715.91110776 794.74279022 722.05784988 C794.78376076 752.68450457 794.72801909 783.272774 790.74092102 813.70018005 C790.57245667 815.0044696 790.40399231 816.30875916 790.23042297 817.65257263 C784.07267985 863.64187822 766.78925131 909.27060884 734.49092102 943.38768005 C733.31824232 944.73664378 732.15131468 946.09063416 730.99092102 947.45018005 C723.45381291 956.03458565 715.24775551 963.23946961 706.16621399 970.1181488 C704.68532587 971.24036073 703.21430092 972.37556247 701.74482727 973.51268005 C680.71989881 989.38538099 655.78333906 1001.26030496 630.49092102 1008.38768005 C629.66769348 1008.62035583 628.84446594 1008.85303162 627.99629211 1009.09275818 C592.45133791 1018.86466257 554.59968898 1020.5526543 517.9079895 1020.52139282 C515.79424982 1020.52326565 513.68051049 1020.52556822 511.56677169 1020.52825814 C505.81106607 1020.53432447 500.05537508 1020.5342487 494.299667 1020.53306377 C488.07097124 1020.53285844 481.84228003 1020.53839115 475.61358643 1020.54312134 C463.42866781 1020.55140058 451.2437558 1020.55418798 439.05883495 1020.55473372 C429.14346748 1020.55519488 419.22810157 1020.5572616 409.3127346 1020.56043434 C406.44907354 1020.56133202 403.58541246 1020.56222184 400.72175139 1020.56310922 C399.65358332 1020.56344079 399.65358332 1020.56344079 398.5638361 1020.56377906 C378.55475091 1020.56992643 358.54566626 1020.57388034 338.53658009 1020.57343578 C337.78345121 1020.5734202 337.03032233 1020.57340463 336.25437136 1020.57338858 C332.43802554 1020.57330548 328.62167971 1020.57320644 324.80533389 1020.57310387 C323.66862156 1020.57307395 323.66862156 1020.57307395 322.50894535 1020.57304343 C320.97647292 1020.57300299 319.44400048 1020.57296119 317.91152804 1020.57291804 C294.09627076 1020.57230599 270.28102774 1020.57980166 246.46577454 1020.5934906 C219.64783328 1020.60889948 192.8299014 1020.6174539 166.01195544 1020.61652738 C163.14420776 1020.61645276 160.27646007 1020.61640405 157.40871239 1020.61637306 C156.70271408 1020.61636141 155.99671578 1020.61634975 155.26932359 1020.61633775 C143.97827983 1020.61630716 132.6872486 1020.6226539 121.39620855 1020.63130533 C110.01777969 1020.63984244 98.63937376 1020.64055551 87.26094166 1020.63419601 C81.11419514 1020.63095587 74.96749332 1020.63078202 68.82075119 1020.63954926 C-48.04804385 1020.79565575 -48.04804385 1020.79565575 -99.50907898 995.38768005 C-100.87081238 994.72010681 -100.87081238 994.72010681 -102.26005554 994.03904724 C-120.43330688 985.05294408 -136.31973954 974.77276094 -151.50907898 961.38768005 C-152.25673523 960.75088318 -153.00439148 960.1140863 -153.77470398 959.45799255 C-162.63606924 951.88745609 -170.32852203 943.55937931 -177.50907898 934.38768005 C-178.26318054 933.42732849 -179.0172821 932.46697693 -179.79423523 931.4775238 C-227.36336104 869.54790719 -229.85235949 793.4946792 -229.77052832 718.68757296 C-229.76594305 712.46796532 -229.77301722 706.24836824 -229.77848816 700.02876282 C-229.78681207 688.58713556 -229.78616956 677.14553808 -229.78066522 665.70391104 C-229.77560329 655.12796825 -229.77433492 644.55203323 -229.77671051 633.97608948 C-229.77686328 633.27035089 -229.77701605 632.56461231 -229.77717345 631.83748771 C-229.77779628 628.97155855 -229.7784331 626.10562941 -229.77909298 623.23970026 C-229.78518987 596.43936771 -229.77969773 569.63904865 -229.76889918 542.83871819 C-229.75941034 519.10861232 -229.76025969 495.37852793 -229.76982117 471.64842224 C-229.78056628 444.89227819 -229.78475721 418.13614602 -229.77859664 391.38000011 C-229.77795535 388.51975696 -229.77732966 385.65951379 -229.77671051 382.79927063 C-229.77655236 382.09517683 -229.7763942 381.39108303 -229.77623125 380.66565306 C-229.77397105 370.10498469 -229.77658909 359.544325 -229.78166962 348.98365784 C-229.78742705 336.95710438 -229.78568702 324.9305817 -229.77510813 312.90402913 C-229.76989945 306.78352251 -229.76771124 300.66305912 -229.77440643 294.54255295 C-229.80508155 263.97585424 -229.73833097 233.44270901 -225.75907898 203.07518005 C-225.59061462 201.7708905 -225.42215027 200.46660095 -225.24858093 199.12278748 C-219.09083781 153.13348189 -201.80740927 107.50475127 -169.50907898 73.38768005 C-168.33640028 72.03871632 -167.16947264 70.68472594 -166.00907898 69.32518005 C-158.47197087 60.74077446 -150.26591346 53.5358905 -141.18437195 46.6572113 C-139.70348383 45.53499938 -138.23245888 44.39979764 -136.76298523 43.26268005 C-112.63065714 25.04405793 -84.11497074 12.8037699 -54.88407898 5.63768005 C-54.12256531 5.45084656 -53.36105164 5.26401306 -52.57646179 5.07151794 C-49.89634315 4.45369117 -47.20815276 3.917561 -44.50907898 3.38768005 C-42.61958716 3.01444521 -42.61958716 3.01444521 -40.6919238 2.63367027 C-27.10863305 0.13472247 -13.7777943 -0.03718426 0 0 Z " fill="#0011FE" transform="translate(229.5090789794922,-0.3876800537109375)"/>
<path d="M0 0 C6.28011658 0.00899869 12.56021557 0.00035441 18.84033215 -0.00586212 C30.38048105 -0.01472158 41.92056605 -0.01026768 53.4607101 0.0013017 C64.12378386 0.01191674 74.78683987 0.01636724 85.44991887 0.01500618 C86.51863795 0.01488014 86.51863795 0.01488014 87.60894732 0.01475155 C90.50239447 0.0143992 93.39584161 0.01401516 96.28928875 0.01358597 C123.318197 0.00963894 150.34707398 0.02225508 177.37597329 0.04311253 C201.30859948 0.06149392 225.24119575 0.06728852 249.17382824 0.06184113 C250.7122549 0.06149469 252.25068156 0.0611486 253.78910822 0.06080284 C254.54973662 0.06063184 255.31036501 0.06046085 256.09404274 0.06028467 C259.92420929 0.05943092 263.75437584 0.05860715 267.58454239 0.05781567 C268.71838739 0.05758005 268.71838739 0.05758005 269.87513835 0.05733967 C289.97368875 0.0533377 310.07223633 0.0588408 330.17078501 0.06732696 C332.33661628 0.06823385 334.50244755 0.0691395 336.66827881 0.07004219 C338.10455237 0.07064329 339.54082593 0.07125191 340.97709948 0.0718681 C350.92881101 0.07606492 360.88051689 0.07667813 370.83222901 0.07476261 C383.65933284 0.07230543 396.48639839 0.07671694 409.31349552 0.09197261 C415.48443274 0.0991566 421.65532862 0.10334558 427.82626927 0.09872925 C487.41803099 0.0595711 487.41803099 0.0595711 516.47290051 4.19001496 C518.3174281 4.44657868 518.3174281 4.44657868 520.19921887 4.70832551 C565.53937504 11.26023527 606.59692455 28.94301765 641.03540051 59.37751496 C641.55908215 59.83803254 642.08276379 60.29855011 642.62231457 60.77302277 C671.55967488 86.34182349 693.81939715 122.08382834 704.03540051 159.37751496 C704.25244641 160.16448761 704.46949231 160.95146027 704.69311535 161.76228058 C710.45556986 183.15723989 713.49273484 205.29593428 715.03540051 227.37751496 C715.16893933 229.24029084 715.16893933 229.24029084 715.3051759 231.14069855 C716.16474959 244.09447969 716.15059644 257.02539679 716.09790051 270.00251496 C716.09286995 272.18480559 716.08830982 274.36709735 716.08422863 276.54938996 C716.07335906 281.825457 716.05674706 287.10148042 716.03540051 292.37751496 C715.35507342 292.21510028 714.67474634 292.05268561 713.97380328 291.88534928 C710.60361787 291.30289141 707.4424259 291.25235224 704.02095616 291.25216579 C703.32214841 291.25076348 702.62334067 291.24936116 701.90335693 291.24791635 C699.55154659 291.24442461 697.19980149 291.24807934 694.84799206 291.25167382 C693.14166026 291.25063103 691.43532867 291.24915005 689.72899759 291.24726945 C685.01457405 291.24335761 680.30017085 291.24571468 675.58574763 291.2490474 C670.46647265 291.25157461 665.3472009 291.24832797 660.22792637 291.24580407 C651.24728342 291.24218411 642.26664647 291.24230702 633.28600323 291.24485123 C619.93175624 291.24862425 606.57751433 291.24670491 593.22326738 291.24364292 C570.76019258 291.23867495 548.2971204 291.23850081 525.83404553 291.24121964 C525.14966385 291.24130244 524.46528218 291.24138523 523.76016166 291.24147054 C522.73195255 291.24159493 522.73195255 291.24159493 521.68297154 291.24172184 C500.81466877 291.24424322 479.94636697 291.24489725 459.07806408 291.24369919 C457.68159463 291.24362171 456.28512517 291.24354456 454.88865571 291.24346772 C449.27707507 291.24315727 443.66549443 291.2428386 438.05391379 291.24250796 C422.36641743 291.24159087 406.67892107 291.24102033 390.99142468 291.24072182 C389.91979381 291.24070135 389.91979381 291.24070135 388.82651383 291.24068047 C366.0559021 291.24027109 343.2852907 291.24139864 320.51467907 291.2435714 C319.77594134 291.24364165 319.0372036 291.2437119 318.27607987 291.24378428 C306.27883157 291.24492928 294.28158329 291.24614872 282.284335 291.24737445 C234.69940277 291.25223093 187.11447335 291.25200552 139.52954113 291.24714386 C127.53840141 291.24592271 115.54726168 291.24471168 103.55612195 291.2435714 C102.4486724 291.24346573 102.4486724 291.24346573 101.31885014 291.24335792 C78.57235883 291.24120232 55.82586775 291.24028735 33.07937634 291.24072182 C32.36547783 291.24073541 31.65157932 291.24074899 30.91604752 291.24076299 C15.2460924 291.24107544 -0.4238627 291.24170903 -16.09381779 291.24263232 C-21.70043541 291.24296148 -27.30705302 291.24327456 -32.91367064 291.24358304 C-34.3085002 291.24366042 -35.70332977 291.24373915 -37.09815933 291.24381923 C-57.96189351 291.24501371 -78.8256266 291.24399466 -99.68936064 291.24147054 C-100.37374232 291.24138774 -101.05812399 291.24130494 -101.76324451 291.24121964 C-102.44636828 291.24113696 -103.12949205 291.24105428 -103.83331654 291.24096909 C-126.85291542 291.23821336 -149.87251153 291.23922224 -172.89211023 291.24450038 C-186.17291732 291.24744481 -199.4537177 291.24761666 -212.73452462 291.24385421 C-221.59334267 291.2416206 -230.45215532 291.24299141 -239.31097256 291.24735898 C-244.36654037 291.2497495 -249.4220948 291.25052689 -254.47766221 291.246953 C-259.07077902 291.24373896 -263.66387051 291.24507144 -268.25698546 291.25013366 C-269.91405775 291.25114633 -271.57113212 291.25046037 -273.22820279 291.24792772 C-275.46888466 291.24474432 -277.70947745 291.24766936 -279.95015514 291.25216579 C-281.19360584 291.25223355 -282.43705654 291.25230131 -283.71818757 291.25237112 C-286.59712144 291.36334928 -289.16912369 291.71015025 -291.96459949 292.37751496 C-292.5553298 220.93549972 -289.94063899 147.19042885 -243.96459949 88.37751496 C-243.30331043 87.52415558 -242.64202137 86.67079621 -241.96069324 85.79157746 C-233.30348278 74.91824867 -223.84542289 64.07034669 -212.96459949 55.37751496 C-211.96428699 54.5512259 -210.96397449 53.72493683 -209.93334949 52.87360871 C-169.63424041 19.98930326 -120.82522303 5.77538215 -69.68922412 1.75625336 C-68.86743903 1.69160253 -68.04565394 1.6269517 -67.19896627 1.56034175 C-44.82058539 -0.14373812 -22.42980387 -0.04419821 0 0 Z " fill="#4692F7" transform="translate(299.9645994901657,-0.37751495838165283)"/>
<path d="M0 0 C1.02939697 0.00563965 2.05879395 0.0112793 3.11938477 0.01708984 C10.43128612 0.13402469 16.89737552 0.82456876 23.8125 3.3125 C25.01261719 3.70308594 26.21273437 4.09367187 27.44921875 4.49609375 C44.7324721 10.33662663 59.68461251 19.92403974 73.8125 31.3125 C74.37243652 31.76206055 74.93237305 32.21162109 75.50927734 32.67480469 C82.45925564 38.30067971 89.06687194 44.29989662 95.625 50.375 C96.33785156 51.03089111 97.05070312 51.68678223 97.78515625 52.36254883 C98.44 52.97638428 99.09484375 53.59021973 99.76953125 54.22265625 C100.65088745 55.04455444 100.65088745 55.04455444 101.55004883 55.88305664 C102.8125 57.3125 102.8125 57.3125 102.8125 59.3125 C106.31686418 56.28007025 109.81436612 53.24845505 113.1953125 50.078125 C135.43955388 29.26241288 161.39807434 11.81976719 190.8125 3.3125 C191.75778564 3.03744629 191.75778564 3.03744629 192.72216797 2.75683594 C197.06771721 1.83311489 201.57558633 2.12778791 206 2.125 C207.00353516 2.11275391 208.00707031 2.10050781 209.04101562 2.08789062 C225.68117573 2.05541146 239.76026081 7.9975449 251.99609375 19.3359375 C271.74363627 40.0458359 272.48679114 66.61010479 271.953125 93.62695312 C271.63436384 101.98115197 270.34272368 110.10738982 268.8125 118.3125 C268.48397099 120.16789726 268.15585644 122.02336795 267.828125 123.87890625 C266.33729337 132.13388276 264.77263902 140.3158728 262.328125 148.3515625 C261.68534818 150.45812957 261.68534818 150.45812957 261.8125 153.3125 C262.65095459 153.58288086 263.48940918 153.85326172 264.35327148 154.13183594 C301.32539558 166.16258781 343.70608472 181.71105386 362.8125 218.3125 C369.60156104 233.04159311 370.43805046 250.57820875 365.07495117 266.00415039 C361.08260081 276.34199417 354.51148099 284.4823609 346.8125 292.3125 C346.14863281 292.98925781 345.48476563 293.66601562 344.80078125 294.36328125 C337.96162462 300.86373679 329.9139021 305.56974369 321.8125 310.3125 C321.20132324 310.67375977 320.59014648 311.03501953 319.96044922 311.40722656 C309.80869172 317.33815166 299.11833946 321.48904844 288.08251953 325.484375 C286.24351893 326.15526014 284.41491345 326.85459418 282.58984375 327.5625 C265.10839844 334.3125 265.10839844 334.3125 256.8125 334.3125 C256.98378418 335.03091064 257.15506836 335.74932129 257.33154297 336.48950195 C266.366632 374.73763882 273.07302024 419.91902856 251.8125 455.3125 C249.69094381 458.55968535 247.45479195 461.47513952 244.8125 464.3125 C244.26722656 464.910625 243.72195313 465.50875 243.16015625 466.125 C231.66412358 477.39463378 215.12081783 482.20806336 199.4375 482.75 C167.5085624 481.92624 138.2596027 460.21712548 115.8125 439.3125 C114.46243836 438.14108546 113.10842486 436.9742058 111.75 435.8125 C107.21475365 431.87082373 103.01533508 427.60289414 98.8125 423.3125 C95.19208555 424.85576422 92.77845232 427.05152705 89.9375 429.75 C71.45549914 446.91297955 49.84015295 462.03217551 26.3125 471.3125 C25.60754395 471.59125977 24.90258789 471.87001953 24.17626953 472.15722656 C9.32360183 477.72218857 -10.94144234 479.72964387 -25.80078125 473.50390625 C-26.58839844 473.11074219 -27.37601563 472.71757813 -28.1875 472.3125 C-28.96480469 471.95027344 -29.74210938 471.58804687 -30.54296875 471.21484375 C-47.94175234 462.38069373 -58.03755843 447.39381369 -64.1875 429.3125 C-70.34119546 407.43269393 -68.51911584 381.37445944 -64.1875 359.3125 C-63.82785156 357.43691406 -63.82785156 357.43691406 -63.4609375 355.5234375 C-62.75855521 352.10414787 -61.9895226 348.70974668 -61.1875 345.3125 C-60.82787938 343.76828635 -60.46852019 342.2240118 -60.109375 340.6796875 C-59.14649243 336.55461582 -58.17020827 332.432891 -57.1875 328.3125 C-58.55648437 328.18101562 -58.55648437 328.18101562 -59.953125 328.046875 C-91.82805921 323.42038305 -131.56231576 302.46035591 -151.95703125 277.11328125 C-163.65203102 261.2906345 -166.63169915 245.52034874 -165.1875 226.3125 C-164.37691498 221.67005855 -163.09781881 217.61221443 -161.1875 213.3125 C-160.78660156 212.38695312 -160.38570312 211.46140625 -159.97265625 210.5078125 C-156.09779752 202.57839145 -150.35513771 196.48451037 -144.1875 190.3125 C-143.42824219 189.53003906 -142.66898437 188.74757813 -141.88671875 187.94140625 C-119.29529982 166.05231122 -84.45621588 154.05637617 -54.1875 148.3125 C-54.39113159 147.49966553 -54.39113159 147.49966553 -54.59887695 146.67041016 C-56.98447102 137.08159404 -59.30405595 127.4995193 -60.9375 117.75 C-61.05262939 117.07469238 -61.16775879 116.39938477 -61.28637695 115.70361328 C-63.02545726 104.82746027 -63.36918739 93.93496508 -63.375 82.9375 C-63.38724609 81.72578125 -63.39949219 80.5140625 -63.41210938 79.265625 C-63.43073827 67.61635533 -62.35938416 56.2335447 -58.5 45.1875 C-58.23944824 44.42961182 -57.97889648 43.67172363 -57.71044922 42.89086914 C-51.55504274 25.69623189 -40.61472811 13.48178921 -24.59765625 4.9296875 C-22.47261867 3.94890093 -20.40074806 3.07256561 -18.1875 2.3125 C-17.17816406 1.95671875 -16.16882813 1.6009375 -15.12890625 1.234375 C-10.15615536 -0.14937581 -5.12706709 -0.02916657 0 0 Z " fill="#FDFDFF" transform="translate(410.1875,378.6875)"/>
<path d="M0 0 C2.22590227 0.01509361 4.45181459 0.02877364 6.67773438 0.04101562 C12.05621413 0.07360535 17.43430781 0.12342374 22.8125 0.1875 C22.8125 0.5175 22.8125 0.8475 22.8125 1.1875 C21.78817871 1.25219482 20.76385742 1.31688965 19.70849609 1.38354492 C-41.2665846 5.31207215 -99.66194279 17.42539165 -145.92578125 60.11328125 C-147.97074667 61.98871586 -150.06369475 63.77782533 -152.1875 65.5625 C-198.28583465 105.92168455 -214.48259146 168.66487606 -219.1875 227.1875 C-220.02857429 239.95501429 -220.48570032 252.72006629 -220.73950195 265.51171875 C-220.76041669 266.55242712 -220.78133142 267.59313549 -220.80287993 268.66538048 C-221.5765853 309.0357143 -221.35255307 349.42525883 -221.35475707 389.80097961 C-221.35525711 397.05827899 -221.35756009 404.31557712 -221.36025429 411.57287598 C-221.36901774 435.67893796 -221.37367959 459.78499557 -221.37292381 483.89105916 C-221.37288386 485.18013952 -221.3728439 486.46921988 -221.37280273 487.79736328 C-221.37274141 489.73341875 -221.37274141 489.73341875 -221.37267885 491.70858645 C-221.37227191 512.6504811 -221.38186501 533.59235782 -221.3959411 554.53424728 C-221.41037803 576.18823838 -221.41720753 597.84222075 -221.41634732 619.49621677 C-221.41601824 631.59340236 -221.41863786 643.69056906 -221.42952538 655.78775024 C-221.43872687 666.07439884 -221.4407273 676.36101995 -221.43401595 686.64767092 C-221.43080075 691.87045891 -221.43050745 697.09319445 -221.4393692 702.3159771 C-221.47235237 723.08817495 -221.23272584 743.80570879 -220.25434875 764.55761719 C-220.21254855 765.44739462 -220.17074834 766.33717206 -220.12768146 767.25391245 C-217.1540402 829.08019536 -203.0530825 885.33191839 -162.1875 933.1875 C-161.7116748 933.74598633 -161.23584961 934.30447266 -160.74560547 934.87988281 C-153.90155726 942.83016261 -146.41130418 949.71131238 -138.1875 956.1875 C-137.32946777 956.86594971 -137.32946777 956.86594971 -136.45410156 957.55810547 C-71.29052765 1008.52028973 10.60117257 1008.54372132 89.4154458 1008.44894934 C95.1388152 1008.44432368 100.86217373 1008.45145734 106.58554077 1008.45690918 C117.73212856 1008.46569968 128.87868909 1008.4639281 140.02527785 1008.4580839 C149.10235422 1008.45352599 158.17942306 1008.4529721 167.25650024 1008.45513153 C169.21074644 1008.45559123 169.21074644 1008.45559123 171.20447236 1008.45606022 C173.85297195 1008.45669981 176.50147154 1008.45734824 179.14997113 1008.4580054 C203.15524446 1008.46351738 227.16050363 1008.45784795 251.16577466 1008.4473202 C272.96436545 1008.43783279 294.76293285 1008.4386822 316.56152344 1008.44824219 C341.19296357 1008.45900909 365.82439028 1008.46312935 390.45583248 1008.45701766 C393.09338824 1008.45638071 395.730944 1008.45575197 398.36849976 1008.45513153 C400.31397185 1008.4546687 400.31397185 1008.4546687 402.29874641 1008.45419653 C411.34155236 1008.45248568 420.38434989 1008.45534946 429.42715454 1008.46009064 C440.48072314 1008.46575992 451.53426343 1008.46405832 462.58782887 1008.45352915 C468.20345948 1008.44835234 473.81904328 1008.44607481 479.43467331 1008.45282745 C501.0243774 1008.47652996 522.56849011 1008.28566679 544.13793945 1007.28460693 C545.00707297 1007.24496811 545.87620648 1007.20532929 546.77167737 1007.1644893 C607.87835061 1004.30228565 664.79551666 990.26485405 711.8125 949.1875 C712.38081543 948.69894531 712.94913086 948.21039062 713.53466797 947.70703125 C721.47244995 940.86419837 728.33520008 933.39737257 734.8125 925.1875 C735.25948242 924.62611328 735.70646484 924.06472656 736.16699219 923.48632812 C786.46337685 859.68342691 786.99262861 778.52832061 786.94322467 701.06364357 C786.94093097 695.72636743 786.94446988 690.38909435 786.94720459 685.05181885 C786.95162146 674.62841675 786.9507035 664.20502191 786.94779195 653.78161954 C786.94551897 645.28634869 786.94523355 636.79107986 786.94631577 628.29580879 C786.946469 627.07929163 786.94662223 625.86277446 786.94678011 624.60939314 C786.9470999 622.13654339 786.94742411 619.66369364 786.9477527 617.19084389 C786.95059628 594.06320084 786.94733957 570.93556178 786.94195233 547.80791939 C786.93749833 528.07905689 786.9382508 508.35020028 786.94287109 488.62133789 C786.94825935 465.60319391 786.95030812 442.58505342 786.94725883 419.5669089 C786.94694036 417.09692387 786.94662599 414.62693884 786.94631577 412.15695381 C786.94616149 410.94236072 786.94600721 409.72776762 786.94584826 408.47636868 C786.94499479 400.02960865 786.94644044 391.58285091 786.94879532 383.13609123 C793.06381451 237.5422145 793.06381451 237.5422145 728.8125 77.1875 C727.98999756 76.24535645 727.98999756 76.24535645 727.15087891 75.28417969 C720.24833326 67.45521308 713.06440205 60.60968515 704.8125 54.1875 C703.08331767 52.70835164 701.35415133 51.2291846 699.625 49.75 C654.91728843 13.40533433 597.66249516 3.80762323 541.8125 1.1875 C541.8125 0.8575 541.8125 0.5275 541.8125 0.1875 C548.35125765 0.08389292 554.88979549 0.01513983 561.42919922 -0.03222656 C563.6418447 -0.05202509 565.85444026 -0.07907099 568.06689453 -0.11425781 C619.28443885 -0.90688253 670.06506632 16.77259258 709.8125 49.1875 C710.35503418 49.62707031 710.89756836 50.06664062 711.45654297 50.51953125 C723.12171316 60.01865488 733.55502448 70.28029983 742.8125 82.1875 C743.56402344 83.14527344 744.31554687 84.10304688 745.08984375 85.08984375 C786.76868107 139.3079552 795.00275449 206.40722817 794.94621277 272.77043152 C794.9480856 274.8841712 794.95038816 276.99791054 794.95307809 279.11164933 C794.95914442 284.86735495 794.95906865 290.62304594 794.95788372 296.37875402 C794.95767838 302.60744978 794.9632111 308.83614099 794.96794128 315.06483459 C794.97622053 327.24975321 794.97900793 339.43466522 794.97955366 351.61958607 C794.98001483 361.53495354 794.98208155 371.45031945 794.98525429 381.36568642 C794.98615197 384.22934749 794.98704178 387.09300856 794.98792917 389.95666963 C794.98815021 390.66878168 794.98837126 391.38089372 794.98859901 392.11458492 C794.99474637 412.12367011 794.99870028 432.13275476 794.99825573 452.14184093 C794.99824015 452.89496981 794.99822457 453.64809869 794.99820852 454.42404966 C794.99812543 458.24039548 794.99802639 462.05674131 794.99792381 465.87308713 C794.9978939 467.00979946 794.9978939 467.00979946 794.99786337 468.16947567 C794.99782294 469.7019481 794.99778114 471.23442054 794.99773798 472.76689298 C794.99712594 496.58215026 795.00462161 520.39739328 795.01831055 544.21264648 C795.03371943 571.03058774 795.04227385 597.84851962 795.04134732 624.66646558 C795.04127271 627.53421326 795.04122399 630.40196095 795.04119301 633.26970863 C795.04118135 633.97570694 795.0411697 634.68170524 795.04115769 635.40909743 C795.0411271 646.70014119 795.04747385 657.99117242 795.05612527 669.28221247 C795.06466239 680.66064133 795.06537545 692.03904726 795.05901595 703.41747936 C795.05577582 709.56422589 795.05560197 715.7109277 795.0643692 721.85766983 C795.10533974 752.48432451 795.04959807 783.07259395 791.0625 813.5 C790.89403564 814.80428955 790.72557129 816.1085791 790.55200195 817.45239258 C784.39425883 863.44169816 767.11083029 909.07042878 734.8125 943.1875 C733.6398213 944.53646373 732.47289366 945.89045411 731.3125 947.25 C723.77539189 955.83440559 715.56933449 963.03928955 706.48779297 969.91796875 C705.00690485 971.04018067 703.5358799 972.17538241 702.06640625 973.3125 C681.04147779 989.18520094 656.10491804 1001.06012491 630.8125 1008.1875 C629.98927246 1008.42017578 629.16604492 1008.65285156 628.31787109 1008.89257812 C592.77291689 1018.66448251 554.92126796 1020.35247425 518.22956848 1020.32121277 C516.1158288 1020.3230856 514.00208946 1020.32538816 511.88835067 1020.32807809 C506.13264505 1020.33414442 500.37695406 1020.33406865 494.62124598 1020.33288372 C488.39255022 1020.33267838 482.16385901 1020.3382111 475.93516541 1020.34294128 C463.75024679 1020.35122053 451.56533478 1020.35400793 439.38041393 1020.35455366 C429.46504646 1020.35501483 419.54968055 1020.35708155 409.63431358 1020.36025429 C406.77065251 1020.36115197 403.90699144 1020.36204178 401.04333037 1020.36292917 C399.9751623 1020.36326074 399.9751623 1020.36326074 398.88541508 1020.36359901 C378.87632989 1020.36974637 358.86724524 1020.37370028 338.85815907 1020.37325573 C338.10503019 1020.37324015 337.35190131 1020.37322457 336.57595034 1020.37320852 C332.75960452 1020.37312543 328.94325869 1020.37302639 325.12691287 1020.37292381 C323.99020054 1020.3728939 323.99020054 1020.3728939 322.83052433 1020.37286337 C321.2980519 1020.37282294 319.76557946 1020.37278114 318.23310702 1020.37273798 C294.41784974 1020.37212594 270.60260672 1020.37962161 246.78735352 1020.39331055 C219.96941226 1020.40871943 193.15148038 1020.41727385 166.33353442 1020.41634732 C163.46578674 1020.41627271 160.59803905 1020.41622399 157.73029137 1020.41619301 C157.02429306 1020.41618135 156.31829476 1020.4161697 155.59090257 1020.41615769 C144.29985881 1020.4161271 133.00882758 1020.42247385 121.71778753 1020.43112527 C110.33935867 1020.43966239 98.96095274 1020.44037545 87.58252064 1020.43401595 C81.43577411 1020.43077582 75.2890723 1020.43060197 69.14233017 1020.4393692 C-47.72646487 1020.59547569 -47.72646487 1020.59547569 -99.1875 995.1875 C-100.5492334 994.51992676 -100.5492334 994.51992676 -101.93847656 993.83886719 C-120.1117279 984.85276403 -135.99816056 974.57258088 -151.1875 961.1875 C-151.93515625 960.55070313 -152.6828125 959.91390625 -153.453125 959.2578125 C-162.31449026 951.68727604 -170.00694305 943.35919926 -177.1875 934.1875 C-177.94160156 933.22714844 -178.69570312 932.26679687 -179.47265625 931.27734375 C-227.04178206 869.34772713 -229.53078051 793.29449915 -229.44894934 718.4873929 C-229.44436407 712.26778527 -229.45143824 706.04818819 -229.45690918 699.82858276 C-229.46523309 688.3869555 -229.46459058 676.94535803 -229.45908624 665.50373098 C-229.45402431 654.9277882 -229.45275594 644.35185318 -229.45513153 633.77590942 C-229.4552843 633.07017084 -229.45543707 632.36443225 -229.45559447 631.63730765 C-229.4562173 628.7713785 -229.45685412 625.90544935 -229.457514 623.03952021 C-229.46361089 596.23918766 -229.45811876 569.4388686 -229.4473202 542.63853814 C-229.43783136 518.90843227 -229.43868071 495.17834787 -229.44824219 471.44824219 C-229.4589873 444.69209814 -229.46317823 417.93596597 -229.45701766 391.17982006 C-229.45637637 388.3195769 -229.45575068 385.45933374 -229.45513153 382.59909058 C-229.45497338 381.89499678 -229.45481522 381.19090298 -229.45465227 380.465473 C-229.45239207 369.90480463 -229.45501011 359.34414495 -229.46009064 348.78347778 C-229.46584807 336.75692433 -229.46410804 324.73040165 -229.45352915 312.70384908 C-229.44832048 306.58334245 -229.44613226 300.46287907 -229.45282745 294.34237289 C-229.48350257 263.77567418 -229.41675199 233.24252896 -225.4375 202.875 C-225.26903564 201.57071045 -225.10057129 200.2664209 -224.92700195 198.92260742 C-218.76925883 152.93330184 -201.48583029 107.30457122 -169.1875 73.1875 C-168.0148213 71.83853627 -166.84789366 70.48454589 -165.6875 69.125 C-158.15039189 60.54059441 -149.94433449 53.33571045 -140.86279297 46.45703125 C-139.38190485 45.33481933 -137.9108799 44.19961759 -136.44140625 43.0625 C-112.30907816 24.84387788 -83.79339176 12.60358985 -54.5625 5.4375 C-53.80098633 5.2506665 -53.03947266 5.06383301 -52.25488281 4.87133789 C-49.57467874 4.25349143 -46.88753579 3.71253649 -44.1875 3.1875 C-43.24522049 2.99648209 -43.24522049 2.99648209 -42.28390503 2.80160522 C-28.16089682 0.00143364 -14.35758791 -0.17168207 0 0 Z " fill="#000000" transform="translate(229.1875,-0.18749999999999997)"/>
<path d="M0 0 C2.29945746 0.10066895 4.59919902 0.19504011 6.89916992 0.28320312 C11.41589341 0.46768419 15.9259767 0.70317559 20.43847656 0.97070312 C25.61572542 1.25038189 30.6935186 1.1941932 35.8671875 0.921875 C52.31792633 0.33178747 52.31792633 0.33178747 57.89257812 5.34570312 C62.43682697 11.01010294 65.33361873 17.32961372 68.14013672 23.98583984 C69.90135079 28.02762359 71.99278001 31.80709386 74.17016602 35.63623047 C75.68342542 38.30531326 77.12783614 41.00283317 78.5625 43.71484375 C80.66229257 47.65407154 82.88707263 51.49109284 85.1875 55.31640625 C86.35442533 57.33578805 87.52109877 59.35531543 88.6875 61.375 C89.26387207 62.28644775 89.84024414 63.19789551 90.43408203 64.13696289 C92.64012749 68.05403004 93.98251062 70.6430446 92.81469727 75.11108398 C91.26361357 78.32118282 89.48996602 81.2509967 87.5625 84.25 C86.23287485 86.50639372 84.90345393 88.76290778 83.57421875 91.01953125 C82.14348102 93.37378643 80.69629512 95.71778081 79.25 98.0625 C78.48786349 99.30568372 77.72623018 100.54917606 76.96508789 101.79296875 C75.84275391 103.62687141 74.72012341 105.46058124 73.5955658 107.29312134 C70.85776728 111.75596519 68.16881278 116.24572881 65.5 120.75 C55.74184783 137.07065217 55.74184783 137.07065217 52.5625 140.25 C50.82740069 140.34900034 49.0882626 140.37799163 47.3503418 140.37939453 C46.2337468 140.38254669 45.11715179 140.38569885 43.96672058 140.38894653 C42.13274467 140.38591019 42.13274467 140.38591019 40.26171875 140.3828125 C38.3706414 140.38424759 38.3706414 140.38424759 36.44136047 140.38571167 C33.75359747 140.38639471 31.06592412 140.38503107 28.37817383 140.38037109 C25.66005252 140.37588019 22.94199799 140.37573464 20.22387695 140.38037109 C12.4957216 140.39269746 4.76948015 140.36775513 -2.95825195 140.28308105 C-5.18636843 140.26189589 -7.41460508 140.25003721 -9.64282227 140.25012207 C-12.43654267 140.24726691 -15.22645325 140.20462449 -18.01953125 140.1484375 C-18.81039627 140.15577911 -19.60126129 140.16312073 -20.41609192 140.17068481 C-23.38123428 140.07424772 -25.73826983 139.82889188 -28.06976318 137.89865112 C-30.57370904 134.98370378 -32.49740797 131.85844355 -34.0390625 128.3359375 C-36.24313812 123.56643137 -38.77672886 119.05362735 -41.39672852 114.50146484 C-43.83500651 110.24453397 -46.19280355 105.94479615 -48.55712891 101.64648438 C-50.17638898 98.72164067 -51.81521331 95.80969524 -53.46572876 92.90249634 C-54.46950035 91.12875698 -55.46444561 89.35038789 -56.45605469 87.56982422 C-57.70990395 85.31895742 -58.97696412 83.07538553 -60.25878906 80.84033203 C-64.34928708 73.41210939 -64.34928708 73.41210939 -64.70703125 68.69921875 C-62.79083387 63.49305787 -60.06578197 58.91659573 -57.1875 54.1875 C-56.55924316 53.13546387 -55.93098633 52.08342773 -55.28369141 50.99951172 C-53.97942347 48.81570486 -52.67095112 46.63440387 -51.35839844 44.45556641 C-49.56115532 41.45635414 -47.79344991 38.44240032 -46.0390625 35.41796875 C-45.49540039 34.48412354 -44.95173828 33.55027832 -44.39160156 32.58813477 C-43.3932712 30.87285256 -42.39749231 29.15608054 -41.40527344 27.43725586 C-40.40993202 25.7415077 -39.3810169 24.06517213 -38.32543945 22.40625 C-36.78803648 19.83602556 -35.5097944 17.32172704 -34.22729492 14.625 C-26.09344395 -1.22279199 -16.68053148 -1.12586341 0 0 Z " fill="#0213FF" transform="translate(497.4375,548.75)"/>
<path d="M0 0 C1.01094223 -0.00241196 2.02188446 -0.00482391 3.0634613 -0.00730896 C5.19216857 -0.00633522 7.32090266 0.00694434 9.44946289 0.03198242 C12.65146418 0.06606427 15.85066166 0.05266936 19.05273438 0.03320312 C34.16026657 0.04462836 49.65036437 1.02661343 63.12109375 8.62890625 C64.23677734 9.25732422 64.23677734 9.25732422 65.375 9.8984375 C74.16557422 15.2977242 79.75126936 22.31333673 84.43359375 31.37890625 C84.7591626 31.99749512 85.08473145 32.61608398 85.42016602 33.25341797 C91.10364034 44.88629471 91.69848511 57.13408812 91.62109375 69.81640625 C91.61933136 70.5879303 91.61756897 71.35945435 91.61575317 72.15435791 C91.51734084 91.46971988 88.15667876 109.25844496 74.49609375 124.00390625 C60.84402773 136.72514959 43.97796393 139.7357771 26 139.8671875 C24.94127182 139.87525925 23.88254364 139.88333099 22.79173279 139.89164734 C20.56030894 139.90542835 18.32886454 139.91617703 16.09741211 139.92407227 C13.82326042 139.93561949 11.54913639 139.95611413 9.27514648 139.9855957 C5.9749119 140.02833187 2.67547713 140.04444639 -0.625 140.0546875 C-1.63356552 140.07219559 -2.64213104 140.08970367 -3.68125916 140.10774231 C-9.86313661 140.08886034 -14.78660203 139.33559858 -19.87890625 135.62890625 C-23.42511519 131.17341297 -24.99693916 127.63854033 -25.02607727 121.98736572 C-25.03323257 121.03414429 -25.04038788 120.08092285 -25.04776001 119.09881592 C-25.05179337 117.53251434 -25.05179337 117.53251434 -25.0559082 115.93457031 C-25.0624794 114.83346924 -25.0690506 113.73236816 -25.07582092 112.59790039 C-25.09556359 108.94677668 -25.10721856 105.29569411 -25.1171875 101.64453125 C-25.12126303 100.39830742 -25.12533855 99.15208359 -25.12953758 97.8680954 C-25.14825043 91.95261765 -25.16281536 86.037153 -25.17114955 80.12165284 C-25.18091636 73.30260525 -25.20722317 66.48388274 -25.24765044 59.66494966 C-25.28150037 53.75163322 -25.29329877 47.83839602 -25.29735374 41.92498016 C-25.30222642 39.41318304 -25.31385965 36.90138955 -25.33239174 34.38965607 C-25.35672526 30.87311402 -25.35582821 27.35742069 -25.34887695 23.84082031 C-25.36168701 22.80471619 -25.37449707 21.76861206 -25.38769531 20.70111084 C-25.3428436 14.47117814 -24.67852111 10.64799227 -20.87890625 5.62890625 C-14.64869459 0.64841716 -7.71551999 -0.10824775 0 0 Z " fill="#F3F5F7" transform="translate(351.87890625,72.37109375)"/>
<path d="M0 0 C0.82564453 -0.03738281 1.65128906 -0.07476562 2.50195312 -0.11328125 C9.67681948 -0.2150524 14.18757859 2.09176758 19.45458984 6.86230469 C27.76887235 15.67307989 30.77443343 28.65758365 34.5234375 39.8984375 C35.05952965 41.49167374 35.59613096 43.08473873 36.13320923 44.67764282 C37.53957838 48.85332406 38.93896191 53.0313131 40.33685303 57.20983887 C41.73846227 61.39525707 43.14686805 65.57838624 44.5546875 69.76171875 C46.95162113 76.88590337 49.33784313 84.01361462 51.72016811 91.14269543 C53.17299218 95.48387484 54.64587185 99.81752324 56.13696289 104.14575195 C56.46898712 105.11682892 56.80101135 106.08790588 57.14309692 107.08840942 C57.72406862 108.78488396 58.31107006 110.47931505 58.90621948 112.17086792 C61.54574944 119.91951121 62.63763182 127.30355208 59.1875 135 C55.27254982 138.91495018 51.87834488 140.52537368 46.375 140.75 C41.95102849 140.56411884 38.66566781 139.67208081 34.8125 137.375 C30.21990168 131.88717253 28.11961109 126.34244807 26 119.5625 C25.53303711 118.13260742 25.53303711 118.13260742 25.05664062 116.67382812 C22.8125 109.7145261 22.8125 109.7145261 22.8125 107.375 C7.3025 107.375 -8.2075 107.375 -24.1875 107.375 C-25.1775 111.005 -26.1675 114.635 -27.1875 118.375 C-32.09136141 135.02575377 -32.09136141 135.02575377 -39.1875 139.375 C-44.43266472 141.12338824 -48.76260961 140.82621529 -53.9375 139.1875 C-57.45456089 137.22606219 -58.97207713 135.70374521 -61.1875 132.375 C-63.18526103 122.46777155 -59.61089584 113.07337444 -56.3125 103.875 C-55.78364766 102.35396431 -55.25686139 100.832209 -54.73193359 99.30981445 C-53.56024212 95.91787631 -52.3782688 92.52972361 -51.19140625 89.14306641 C-48.94230129 82.69936946 -46.76750619 76.23114743 -44.59375 69.76171875 C-43.3961058 66.2040029 -42.19805268 62.64642495 -40.99993896 59.08886719 C-40.21609905 56.76107821 -39.43276349 54.43311932 -38.64996338 52.10498047 C-23.95974621 8.48277129 -23.95974621 8.48277129 -12.1875 1.375 C-8.10319075 0.01356358 -4.27955321 0.07181554 0 0 Z " fill="#F3F5F7" transform="translate(514.1875,72.625)"/>
<path d="M0 0 C9.50680928 6.40817349 13.8294357 14.96265048 16 26 C16.40367275 30.50933667 16.42895038 34.97502916 16.375 39.5 C16.36557373 40.72960449 16.35614746 41.95920898 16.34643555 43.22607422 C16.07320455 59.87901332 12.82990851 75.12923416 8 91 C7.79665039 91.67482422 7.59330078 92.34964844 7.38378906 93.04492188 C6.27948478 96.70417645 5.15253795 100.35566211 4 104 C-4.02479913 104.33074009 -11.49157003 103.04468233 -19.375 101.625 C-28.9968734 99.9335281 -38.5815302 98.40433357 -48.32763672 97.63330078 C-52.22244788 97.30363447 -55.57336967 96.94516977 -59 95 C-60.78125 92.8125 -60.78125 92.8125 -62.5 90 C-65.96278164 84.55755263 -69.58942568 79.28603125 -73.375 74.0625 C-74.20922485 72.90959473 -74.20922485 72.90959473 -75.06030273 71.73339844 C-79.22709491 66.00307404 -83.50632157 60.37136745 -87.87890625 54.796875 C-90.0520698 51.93134074 -92.03578473 49.01090595 -94 46 C-73.29428306 24.87559536 -73.29428306 24.87559536 -64 18 C-63.45537109 17.59491211 -62.91074219 17.18982422 -62.34960938 16.77246094 C-44.498403 3.55627011 -22.45764079 -11.71252343 0 0 Z " fill="#0112FF" transform="translate(632,419)"/>
<path d="M0 0 C8.11616874 26.76383899 18.02418129 62.60762931 4 89 C-0.27852261 96.52429838 -6.07012936 101.37187998 -14.203125 104.3046875 C-28.71809825 107.9131585 -41.62488897 101.96619046 -53.85546875 94.671875 C-70.83861405 84.04492452 -85.92628979 69.07321883 -99 54 C-97.54166166 50.67199712 -95.68768646 48.43328915 -93.1875 45.8125 C-87.23030366 39.31113669 -81.98658314 32.30226378 -76.69482422 25.25634766 C-74.97983325 22.97315167 -73.25805783 20.69519943 -71.53515625 18.41796875 C-70.43971419 16.96644006 -69.34464779 15.51462777 -68.25 14.0625 C-67.73655029 13.3823584 -67.22310059 12.7022168 -66.6940918 12.00146484 C-64.13090069 8.63887215 -64.13090069 8.63887215 -62 5 C-60.14927673 4.61436462 -60.14927673 4.61436462 -57.69897461 4.42163086 C-56.78389633 4.34492661 -55.86881805 4.26822235 -54.92601013 4.18919373 C-53.42929527 4.07814049 -53.42929527 4.07814049 -51.90234375 3.96484375 C-50.87951797 3.88126114 -49.8566922 3.79767853 -48.8028717 3.71156311 C-45.51505981 3.44462441 -42.22639771 3.19067673 -38.9375 2.9375 C-35.67385529 2.67811358 -32.41043734 2.41607244 -29.14710999 2.15272522 C-27.11384208 1.98954229 -25.08035033 1.82911774 -23.0466156 1.67185974 C-18.87088564 1.34412582 -14.71468728 0.98943689 -10.56079102 0.44750977 C-6.96419378 -0.00450002 -3.61612953 -0.07533603 0 0 Z " fill="#0112FF" transform="translate(632,721)"/>
<path d="M0 0 C0.52001587 1.33454224 0.52001587 1.33454224 1.05053711 2.69604492 C2.37844908 6.10089706 3.71031821 9.50418851 5.04388428 12.90682983 C5.63829013 14.42386189 6.2320837 15.94113401 6.82525635 17.45864868 C10.81157553 27.64750337 14.88760223 37.77305543 19.54663086 47.6784668 C20.06108765 48.81795776 20.06108765 48.81795776 20.5859375 49.98046875 C20.8854834 50.61879639 21.1850293 51.25712402 21.49365234 51.91479492 C22.65851748 56.7118601 20.77376116 60.93984217 18.62890625 65.17578125 C18.14172119 66.15740234 17.65453613 67.13902344 17.15258789 68.15039062 C16.62785889 69.19388672 16.10312988 70.23738281 15.5625 71.3125 C10.54788096 81.43051903 6.18704292 91.65400522 2.38696289 102.2902832 C2.0130542 103.28761475 1.63914551 104.28494629 1.25390625 105.3125 C0.93752197 106.19550781 0.6211377 107.07851563 0.29516602 107.98828125 C-1 110 -1 110 -3.29174805 110.87426758 C-6.36670116 111.01702435 -8.62878251 110.55296118 -11.5859375 109.69921875 C-13.21269409 109.23044312 -13.21269409 109.23044312 -14.87231445 108.75219727 C-16.02820068 108.40084717 -17.18408691 108.04949707 -18.375 107.6875 C-19.5714917 107.32648193 -20.7679834 106.96546387 -22.00073242 106.59350586 C-44.36642381 99.6353894 -71.61750515 89.89391541 -83.80859375 68.39453125 C-87.77797453 60.4167266 -88.69396769 52.38462734 -85.97265625 43.734375 C-77.46754642 25.3576834 -58.09516984 15.99926158 -39.94946289 9.27172852 C-31.95070158 6.41630522 -23.87988957 4.0579328 -15.625 2.0625 C-14.75157959 1.85093262 -13.87815918 1.63936523 -12.97827148 1.42138672 C-8.53100644 0.40147134 -4.58785793 -0.08935247 0 0 Z " fill="#0112FF" transform="translate(367,562)"/>
<path d="M0 0 C11.41351692 6.95323465 21.37559707 15.5873034 31 24.8125 C31.69222656 25.46686035 32.38445312 26.1212207 33.09765625 26.79541016 C35.35056706 28.93224708 37.58350981 31.0882438 39.8125 33.25 C40.89978394 34.27988037 40.89978394 34.27988037 42.0090332 35.33056641 C43.00422974 36.30968994 43.00422974 36.30968994 44.01953125 37.30859375 C44.61870361 37.88794678 45.21787598 38.4672998 45.83520508 39.06420898 C47 40.8125 47 40.8125 46.81420898 42.86669922 C45.55454662 45.87704676 43.400339 48.09615518 41.25 50.5 C36.83504141 55.57621706 32.63948483 60.77384272 28.5625 66.125 C28.01327881 66.83237305 27.46405762 67.53974609 26.89819336 68.26855469 C24.11985435 71.87733779 21.52664489 75.50179683 19.140625 79.3828125 C12.4721341 89.9281173 12.4721341 89.9281173 6.265625 92.1484375 C2.49542075 92.727778 -1.2629514 92.73343077 -5.07080078 92.73632812 C-11.19809592 92.89566435 -17.28598442 93.70920755 -23.375 94.375 C-25.29300415 94.56703003 -25.29300415 94.56703003 -27.24975586 94.76293945 C-28.4538208 94.8837085 -29.65788574 95.00447754 -30.8984375 95.12890625 C-31.97786621 95.23662354 -33.05729492 95.34434082 -34.16943359 95.45532227 C-36.53395406 95.75369155 -38.70137643 96.21403806 -41 96.8125 C-42.74886981 96.87874507 -44.50002748 96.89802595 -46.25 96.875 C-47.58804687 96.86146484 -47.58804687 96.86146484 -48.953125 96.84765625 C-49.62859375 96.83605469 -50.3040625 96.82445312 -51 96.8125 C-55.11319821 83.30974685 -57.89049846 69.76618793 -60 55.8125 C-60.10530029 55.12381836 -60.21060059 54.43513672 -60.3190918 53.72558594 C-62.58741474 37.50165667 -62.90757241 18.44349722 -53.8125 4.1875 C-39.50711988 -14.04725491 -17.86180126 -9.86607347 0 0 Z " fill="#0112FF" transform="translate(442,422.1875)"/>
<path d="M0 0 C26.39938765 2.44561918 60.45486655 15.52479396 78 36 C84.20970623 44.32009539 86.33649977 52.63626495 85 63 C79.55362122 78.70059537 67.69022515 87.29145557 53.36962891 94.48217773 C36.95778778 102.39726411 16.50379244 111 -2 111 C-2.34667725 110.11030518 -2.69335449 109.22061035 -3.05053711 108.30395508 C-4.37844908 104.89910294 -5.71031821 101.49581149 -7.04388428 98.09317017 C-7.63829013 96.57613811 -8.2320837 95.05886599 -8.82525635 93.54135132 C-12.81157553 83.35249663 -16.88760223 73.22694457 -21.54663086 63.3215332 C-22.06108765 62.18204224 -22.06108765 62.18204224 -22.5859375 61.01953125 C-22.8854834 60.38120361 -23.1850293 59.74287598 -23.49365234 59.08520508 C-24.70420262 54.1000026 -22.61816602 49.7466424 -20.41015625 45.3515625 C-19.61097778 43.73568237 -19.61097778 43.73568237 -18.7956543 42.0871582 C-18.22371338 40.944646 -17.65177246 39.80213379 -17.0625 38.625 C-10.83122891 25.96262114 -5.25393993 13.10150578 0 0 Z " fill="#0112FF" transform="translate(658,567)"/>
<path d="M0 0 C5.88925019 0.6947627 11.68417571 1.6283661 17.51367188 2.72753906 C23.20978856 3.72334794 28.842224 4.21493109 34.60546875 4.55859375 C60.07687518 6.22228673 60.07687518 6.22228673 65.0234375 10.9609375 C67.27326899 13.98230696 68.65743096 17.30535659 70.01513672 20.80126953 C71.87321614 24.94947559 74.71998407 28.44429737 77.4375 32.0625 C78.53397579 33.57673485 79.63033114 35.09105693 80.7265625 36.60546875 C82.85130392 39.49103738 85.02782615 42.32080067 87.2734375 45.11328125 C87.78592041 45.75064209 88.29840332 46.38800293 88.82641602 47.04467773 C89.79127026 48.23303198 90.76525835 49.41404931 91.74975586 50.58618164 C94.35030294 53.77135161 95 54.71427252 95 59 C93.70581055 60.7800293 93.70581055 60.7800293 91.88671875 62.57421875 C90.88874268 63.56881104 90.88874268 63.56881104 89.87060547 64.58349609 C89.15018066 65.27781738 88.42975586 65.97213867 87.6875 66.6875 C86.95418457 67.40502441 86.22086914 68.12254883 85.46533203 68.86181641 C79.88968756 74.26387142 74.20603006 79.32567098 68 84 C67.22438721 84.59820557 67.22438721 84.59820557 66.43310547 85.20849609 C51.05085646 97.0252931 34.01173823 107.00117382 14 105 C5.25002173 103.08368244 -0.39639883 98.00652987 -5.53515625 90.8671875 C-11.05918907 81.88056851 -11.34954979 71.60126384 -11.25 61.3125 C-11.24105713 60.25651611 -11.23211426 59.20053223 -11.22290039 58.11254883 C-10.92805778 38.09838811 -6.45475462 18.93183749 0 0 Z " fill="#0112FF" transform="translate(388,716)"/>
<path d="M0 0 C6.11888168 3.27043676 9.17933902 8.18341872 12.34765625 14.15625 C12.95601318 15.29739258 13.56437012 16.43853516 14.19116211 17.61425781 C14.83592792 18.83650775 15.48053754 20.05884009 16.125 21.28125 C16.78939922 22.53243677 17.45419767 23.78341161 18.11938477 25.03417969 C20.10842437 28.77899938 22.08701104 32.52926775 24.0625 36.28125 C24.64741211 37.39177734 25.23232422 38.50230469 25.83496094 39.64648438 C28.92363877 45.51806639 32.00056802 51.39567623 35.0625 57.28125 C37.30141466 54.42992633 39.10238408 51.53820811 40.8125 48.34375 C41.33320068 47.3755835 41.85390137 46.40741699 42.39038086 45.40991211 C43.21807983 43.86122437 43.21807983 43.86122437 44.0625 42.28125 C45.23020814 40.11574487 46.39818133 37.95038264 47.56640625 35.78515625 C49.26450162 32.62968093 50.96011884 29.47299002 52.64794922 26.31201172 C54.09134664 23.61026782 55.54484058 20.91417187 57 18.21875 C57.42345703 17.41759766 57.84691406 16.61644531 58.28320312 15.79101562 C61.65806761 9.56579463 65.22688486 3.99331952 71.375 0.28125 C76.478746 -1.10281671 81.1754217 -1.37114162 85.8984375 1.33203125 C90.20616965 4.72568365 91.80330574 7.72608446 92.6875 13.03125 C92.25522841 24.74017186 82.89722565 36.36537099 77.0385437 46.02331543 C75.92642058 47.8620684 74.82437406 49.70660998 73.72290039 51.55175781 C70.35014092 57.16140034 66.95909881 62.54994352 62.8828125 67.6875 C51.82326786 82.23307049 51.62809273 95.960415 51.96679688 113.63305664 C51.98377121 114.5526416 52.00074554 115.47222656 52.01823425 116.41967773 C52.05964422 118.15792564 52.11845341 119.89587864 52.19770813 121.6328125 C52.37755484 127.3521941 51.57635818 131.52517111 47.5625 135.92578125 C42.10570998 140.17468806 37.8211409 141.04679185 31.0625 140.28125 C25.56500914 138.68022635 22.7325896 136.47876763 19.90663147 131.38658142 C18.35263995 127.51080223 18.6631487 123.64921565 18.8046875 119.53515625 C18.81945004 117.62566371 18.83241139 115.71615656 18.84375 113.80664062 C18.88275761 110.83743021 18.93670134 107.87077671 19.02441406 104.90258789 C19.39179569 91.0153297 17.85575319 82.21163804 9.3918457 71.0798645 C7.30897381 68.26172353 5.54211879 65.27191916 3.75390625 62.26171875 C3.07457031 61.14595459 2.39523437 60.03019043 1.6953125 58.88061523 C1.01210938 57.75469971 0.32890625 56.62878418 -0.375 55.46875 C-0.73513184 54.87538849 -1.09526367 54.28202698 -1.46630859 53.67068481 C-6.18550594 45.8898068 -10.86474596 38.0868616 -15.4375 30.21875 C-15.88794678 29.44619873 -16.33839355 28.67364746 -16.80249023 27.87768555 C-20.49570018 21.4708872 -21.77303712 16.62939841 -20.9375 9.28125 C-16.78899548 1.13240184 -9.09879829 -3.37536066 0 0 Z " fill="#F2F5F7" transform="translate(593.9375,72.71875)"/>
<path d="M0 0 C10.12499239 7.05574382 16.12559291 17.1568573 18.375 29.25 C19.85276545 42.45705314 18.07788468 54.18657365 10.0625 65.125 C1.27914606 75.43835753 -9.63002256 82.36567072 -23.421875 83.5859375 C-37.66270302 83.72665714 -49.27032087 80.04396241 -59.953125 70.078125 C-64.16808198 65.55094898 -67.37069863 61.01099238 -69.625 55.25 C-69.92277344 54.53714844 -70.22054688 53.82429687 -70.52734375 53.08984375 C-74.31260483 42.64112769 -74.23274842 29.4146585 -69.625 19.25 C-63.00761243 6.34707026 -54.51264757 -2.01740488 -40.75 -7.1875 C-26.22536751 -11.58261606 -12.52164013 -7.82336769 0 0 Z " fill="#FDFDFF" transform="translate(539.625,580.75)"/>
<path d="M0 0 C30.90742251 0 30.90742251 0 40.76171875 9.39453125 C49.08345574 19.08143976 49.18098544 30.23186092 49.1875 42.375 C49.19974609 43.56867188 49.21199219 44.76234375 49.22460938 45.9921875 C49.24389586 57.61550817 47.28285882 69.67008167 38.89453125 78.42578125 C27.45987616 87.92715445 14.9288097 85 0 85 C0 56.95 0 28.9 0 0 Z " fill="#5191F5" transform="translate(360,100)"/>
<path d="M0 0 C0.66 0 1.32 0 2 0 C4.14200951 7.06409711 6.27759903 14.13011157 8.40869141 21.19750977 C9.13474459 23.60258123 9.86227783 26.00720639 10.59130859 28.41137695 C11.63766736 31.86293728 12.67872965 35.31605655 13.71875 38.76953125 C14.04685669 39.84773636 14.37496338 40.92594147 14.7130127 42.03681946 C15.16347961 43.53803596 15.16347961 43.53803596 15.62304688 45.06958008 C16.02275696 46.39195427 16.02275696 46.39195427 16.43054199 47.74104309 C17 50 17 50 17 53 C6.11 53 -4.78 53 -16 53 C-14.15909252 45.63637008 -12.30165405 38.36793841 -10.1171875 31.11328125 C-9.85745148 30.2447905 -9.59771545 29.37629974 -9.33010864 28.48149109 C-8.78865517 26.67385681 -8.24583334 24.86663185 -7.70166016 23.05981445 C-6.86565072 20.2814287 -6.03612353 17.50115987 -5.20703125 14.72070312 C-4.6774675 12.95561386 -4.14753355 11.19063562 -3.6171875 9.42578125 C-3.3692746 8.59363602 -3.12136169 7.76149078 -2.86593628 6.90412903 C-1.11483751 1.11483751 -1.11483751 1.11483751 0 0 Z " fill="#5B90F3" transform="translate(513,103)"/>
<path d="M0 0 C24 0 24 0 27 2 C25.46157272 3.53842728 23.99174497 3.16222589 21.8515625 3.2109375 C21.01109375 3.23929687 20.170625 3.26765625 19.3046875 3.296875 C17.52624646 3.34872459 15.74756974 3.39306474 13.96875 3.4296875 C13.12570312 3.460625 12.28265625 3.4915625 11.4140625 3.5234375 C10.6401416 3.54325684 9.8662207 3.56307617 9.06884766 3.58349609 C6.35113359 4.13063088 5.6346427 4.75224758 4 7 C3.56196235 10.25399302 3.56196235 10.25399302 3.65942383 14.04174805 C3.65898575 14.75419678 3.65854767 15.46664551 3.65809631 16.20068359 C3.6601857 18.55464115 3.68352285 20.90788569 3.70703125 23.26171875 C3.7126267 24.89410513 3.71689704 26.52649655 3.71989441 28.15888977 C3.7313473 32.45474158 3.76081813 36.75028896 3.79400635 41.04602051 C3.82469776 45.42972699 3.83839775 49.81348267 3.85351562 54.19726562 C3.88568755 62.79831677 3.93688907 71.39912051 4 80 C5.27875 79.97679687 6.5575 79.95359375 7.875 79.9296875 C9.58332745 79.91091467 11.29166127 79.89271611 13 79.875 C13.83917969 79.85824219 14.67835938 79.84148437 15.54296875 79.82421875 C21.05254877 79.78150883 25.71048292 80.44497993 31 82 C21.11144791 88.59236806 15.04012895 85 0 85 C0 56.95 0 28.9 0 0 Z " fill="#778CEA" transform="translate(360,100)"/>
<path d="M0 0 C0.33 0 0.66 0 1 0 C1.00146656 0.55438248 1.00293312 1.10876495 1.00444412 1.6799469 C1.04155921 15.19378548 1.10088679 28.70737109 1.18390274 42.2210083 C1.2233826 48.75623569 1.25556884 55.29132822 1.27099609 61.82666016 C1.28615893 68.13566649 1.3205989 74.44430209 1.36830902 80.75314331 C1.38312647 83.15799738 1.39104122 85.56290438 1.39188385 87.96780396 C1.39425403 91.34091546 1.42134006 94.7130029 1.45410156 98.0859375 C1.4490712 99.07640579 1.44404083 100.06687408 1.43885803 101.08735657 C1.52892835 107.09605436 2.32292461 112.08555261 6 117 C11.81257396 121.56034525 17.98356274 121.55110812 25.11328125 121.42578125 C26.16347946 121.42249313 27.21367767 121.41920502 28.29570007 121.41581726 C31.63506145 121.400151 34.97340071 121.35617832 38.3125 121.3125 C40.54361151 121.30099692 42.7747326 121.29121523 45.00585938 121.28320312 C47.16667679 121.26976933 49.32748555 121.2548437 51.48828125 121.23828125 C52.47822586 121.23089432 53.46817047 121.22350739 54.4881134 121.21589661 C61.03315159 121.12787247 67.49067599 120.68416557 74 120 C74 121.65 74 123.3 74 125 C70.70739285 125.98053895 67.69802941 126.14366319 64.26928711 126.17700195 C63.1180687 126.18983719 61.96685028 126.20267242 60.78074646 126.21589661 C59.54212357 126.22328354 58.30350067 126.23067047 57.02734375 126.23828125 C55.75274796 126.246353 54.47815216 126.25442474 53.16493225 126.26274109 C50.47083917 126.276567 47.77686787 126.28758937 45.08276367 126.29516602 C41.63019704 126.30626686 38.17826846 126.34072377 34.72592831 126.38033772 C31.43062997 126.41272397 28.13527699 126.41727353 24.83984375 126.42578125 C23.59919662 126.44328934 22.3585495 126.46079742 21.08030701 126.47883606 C19.93224075 126.47591049 18.7841745 126.47298492 17.60131836 126.4699707 C16.08386269 126.47877007 16.08386269 126.47877007 14.53575134 126.48774719 C12 126 12 126 10.34913635 124.08000183 C9.68131386 123.05040092 9.68131386 123.05040092 9 122 C5.91666413 120.24927285 5.91666413 120.24927285 3 119 C3 118.01 3 117.02 3 116 C2.34 116 1.68 116 1 116 C0.04060513 113.1218154 -0.12357029 111.33683305 -0.12025452 108.34931946 C-0.12162918 107.39439606 -0.12300385 106.43947266 -0.12442017 105.45561218 C-0.12082489 104.40976456 -0.11722961 103.36391693 -0.11352539 102.28637695 C-0.11374443 100.63248962 -0.11374443 100.63248962 -0.1139679 98.94519043 C-0.11327002 95.29286751 -0.10548344 91.64059529 -0.09765625 87.98828125 C-0.09579163 85.4590813 -0.09436793 82.92988098 -0.09336853 80.40068054 C-0.08993768 74.41901338 -0.08205244 68.43736805 -0.07201904 62.45570964 C-0.06084387 55.64561498 -0.05534391 48.83551946 -0.05032361 42.02541792 C-0.03986946 28.01693517 -0.02227875 14.00846858 0 0 Z " fill="#8DA0ED" transform="translate(326,90)"/>
<path d="M0 0 C6.4752916 7.67441968 9.75194741 13.02600104 9.6015625 23.1953125 C9.60956879 24.14638885 9.61757507 25.09746521 9.62582397 26.07736206 C9.64876378 29.09368331 9.63947619 32.10864429 9.625 35.125 C9.62114444 38.14824038 9.62464111 41.17088725 9.64559937 44.19406128 C9.6576305 46.06831338 9.65511544 47.94273289 9.63589478 49.81692505 C9.65795354 54.97387523 10.12875068 58.52968568 13 63 C17.28909495 66.62923419 22.39760433 67.60414694 27.89453125 67.3203125 C32.45544905 66.62644374 35.20227158 64.88636491 38.25 61.5 C39.52246773 59.68218896 40.769164 57.846254 42 56 C42.49882898 60.1901634 42.19920015 61.71226646 39.75 65.25 C36.90713305 68.09286695 34.94832986 69.77187712 30.92529297 70.24291992 C30.20486816 70.23881104 29.48444336 70.23470215 28.7421875 70.23046875 C27.95199219 70.22853516 27.16179688 70.22660156 26.34765625 70.22460938 C25.53167969 70.21236328 24.71570313 70.20011719 23.875 70.1875 C23.05128906 70.18685547 22.22757813 70.18621094 21.37890625 70.18554688 C15.28127596 70.14063798 15.28127596 70.14063798 13 69 C11.94410931 67.36816893 10.9563874 65.69207001 10 64 C9.27109298 62.72901772 8.54192096 61.45818739 7.8125 60.1875 C7.214375 59.135625 6.61625 58.08375 6 57 C5.01 57.495 5.01 57.495 4 58 C3.97525091 51.96769509 3.95711666 45.93541985 3.94506836 39.90307617 C3.9400447 37.85163864 3.93322463 35.80020468 3.92456055 33.7487793 C3.91240888 30.7973543 3.90675196 27.84597673 3.90234375 24.89453125 C3.89718246 23.97976517 3.89202118 23.06499908 3.88670349 22.12251282 C3.88633735 17.95115808 3.93266685 14.06620692 5 10 C4.34 10 3.68 10 3 10 C3 9.34 3 8.68 3 8 C2.34 8 1.68 8 1 8 C1 6.35 1 4.7 1 3 C0.34 2.67 -0.32 2.34 -1 2 C-0.67 1.34 -0.34 0.68 0 0 Z " fill="#7F90EB" transform="translate(604,145)"/>
<path d="M0 0 C15.51 0 31.02 0 47 0 C47.495 1.98 47.495 1.98 48 4 C46.68 4.33 45.36 4.66 44 5 C44 4.34 44 3.68 44 3 C30.14 3.33 16.28 3.66 2 4 C2 6.97 2 9.94 2 13 C0.68 13.33 -0.64 13.66 -2 14 C-2.07476562 14.6290625 -2.14953125 15.258125 -2.2265625 15.90625 C-3.41169467 23.62122807 -6.27998015 28.21077048 -11.6796875 33.7109375 C-15.10317397 35.61287443 -18.44715163 35.31851686 -22.25 35.1875 C-22.99507813 35.17396484 -23.74015625 35.16042969 -24.5078125 35.14648438 C-26.33885416 35.11127204 -28.16952169 35.05746851 -30 35 C-30 34.34 -30 33.68 -30 33 C-30.99 33 -31.98 33 -33 33 C-34.6875 31 -34.6875 31 -36 29 C-35.67 28.34 -35.34 27.68 -35 27 C-34.2575 27.639375 -33.515 28.27875 -32.75 28.9375 C-28.15579067 32.383157 -23.67091237 32.5703819 -18 32 C-11.35231417 29.91445151 -11.15689152 27.65102643 -7 21 C-4.69 14.07 -2.38 7.14 0 0 Z " fill="#7991ED" transform="translate(490,180)"/>
<path d="M0 0 C0.95708359 0.00222061 1.91416718 0.00444122 2.9002533 0.00672913 C3.98129837 0.00680466 5.06234344 0.00688019 6.17614746 0.00695801 C7.94018166 0.01469994 7.94018166 0.01469994 9.73985291 0.02259827 C10.93702438 0.02401321 12.13419586 0.02542816 13.36764526 0.02688599 C17.20918732 0.03250472 21.05067208 0.04506041 24.89219666 0.05775452 C27.48920102 0.0627671 30.0862063 0.06733043 32.68321228 0.07142639 C39.06539344 0.08248024 45.44754096 0.0992366 51.82969666 0.12025452 C51.82969666 0.78025452 51.82969666 1.44025452 51.82969666 2.12025452 C50.83969666 2.12025452 49.84969666 2.12025452 48.82969666 2.12025452 C49.32469666 4.10025452 49.32469666 4.10025452 49.82969666 6.12025452 C25.07969666 5.62525452 25.07969666 5.62525452 -0.17030334 5.12025452 C-0.17030334 4.13025452 -0.17030334 3.14025452 -0.17030334 2.12025452 C-1.16030334 1.79025452 -2.15030334 1.46025452 -3.17030334 1.12025452 C-2.17030334 0.12025452 -2.17030334 0.12025452 0 0 Z " fill="#688CF1" transform="translate(341.17030334472656,67.87974548339844)"/>
<path d="M0 0 C10.395 0.99 10.395 0.99 21 2 C19.875 8.75 19.875 8.75 18.37109375 11.8671875 C18.05849609 12.52460937 17.74589844 13.18203125 17.42382812 13.859375 C17.09833984 14.52453125 16.77285156 15.1896875 16.4375 15.875 C16.10814453 16.56335938 15.77878906 17.25171875 15.43945312 17.9609375 C14.63304639 19.6438733 13.81745506 21.32240293 13 23 C10.63213568 20.81695718 9.08120454 18.65023162 7.51953125 15.83984375 C7.07802734 15.04642578 6.63652344 14.25300781 6.18164062 13.43554688 C5.72982422 12.61119141 5.27800781 11.78683594 4.8125 10.9375 C4.11737305 9.69516602 4.11737305 9.69516602 3.40820312 8.42773438 C0 2.25883652 0 2.25883652 0 0 Z " fill="#091AFF" transform="translate(600,556)"/>
<path d="M0 0 C3.6837007 3.48370994 6.52018623 6.98002112 9.3125 11.25 C10.00988281 12.30703125 10.70726562 13.3640625 11.42578125 14.453125 C13 17 13 17 13 18 C4.42 18 -4.16 18 -13 18 C-10.18163837 13.06786715 -7.81259214 9.30617593 -4.25 5.0625 C-3.45078125 4.10472656 -2.6515625 3.14695312 -1.828125 2.16015625 C-0.92320312 1.09087891 -0.92320312 1.09087891 0 0 Z " fill="#0617FF" transform="translate(513,494)"/>
<path d="M0 0 C2.97932935 3.48930465 4.54739251 7.39716735 6.1875 11.625 C6.46013672 12.305625 6.73277344 12.98625 7.01367188 13.6875 C9 18.72550517 9 18.72550517 9 21 C1.97360585 21.74805717 -4.93391809 22.13794954 -12 22 C-10.2657267 17.02642312 -7.56672043 12.68501047 -4.875 8.1875 C-4.40707031 7.39923828 -3.93914063 6.61097656 -3.45703125 5.79882812 C-2.30784603 3.86397546 -1.15542997 1.93112772 0 0 Z " fill="#091AFF" transform="translate(610,664)"/>
<path d="M0 0 C-4.20060161 7.42141028 -8.40163385 14.8150529 -13 22 C-16.46566672 19.26285181 -17.65796074 15.42940865 -19.1875 11.4375 C-19.46013672 10.75236328 -19.73277344 10.06722656 -20.01367188 9.36132812 C-22 4.28847509 -22 4.28847509 -22 2 C-19.45887768 1.66198848 -16.91723254 1.32946621 -14.375 1 C-13.66214844 0.90460937 -12.94929688 0.80921875 -12.21484375 0.7109375 C-8.11178391 0.18393899 -4.14754258 -0.10466984 0 0 Z " fill="#091AFF" transform="translate(426,553)"/>
<path d="M0 0 C2.10388569 -0.05402274 4.20816714 -0.09280256 6.3125 -0.125 C8.07013672 -0.15980469 8.07013672 -0.15980469 9.86328125 -0.1953125 C13 0 13 0 16 2 C16 2.99 16 3.98 16 5 C16.7425 5 17.485 5 18.25 5 C21.53637171 6.19504426 21.68502948 6.82762053 23.125 9.875 C23.56199219 10.92300781 23.56199219 10.92300781 24.0078125 11.9921875 C24.89071359 14.06129377 24.89071359 14.06129377 26.54296875 15.49609375 C29.10234637 18.13781059 29.2486561 21.47446324 30 25 C29.01 25.495 29.01 25.495 28 26 C27.23816406 24.46279297 27.23816406 24.46279297 26.4609375 22.89453125 C25.76633734 21.53349039 25.07098456 20.17283345 24.375 18.8125 C24.04371094 18.13896484 23.71242188 17.46542969 23.37109375 16.77148438 C20.4687483 11.1584578 17.21461139 7.07153713 11 5 C5.41580827 4.63382349 1.77352202 4.7453259 -3 8 C-6.91613733 12.22530606 -7.60906098 15.75991144 -7.40625 21.3203125 C-6.71846975 25.85701682 -4.96389555 29.87932631 -3 34 C-4.485 34.495 -4.485 34.495 -6 35 C-6 34.01 -6 33.02 -6 32 C-6.66 32 -7.32 32 -8 32 C-8.66 29.36 -9.32 26.72 -10 24 C-10.66 24 -11.32 24 -12 24 C-13.5790512 16.95500235 -13.5790512 16.95500235 -11.953125 14.2734375 C-10.64488724 12.84025569 -9.32288078 11.41967693 -8 10 C-8 8.68 -8 7.36 -8 6 C-6.02 5.67 -4.04 5.34 -2 5 C-2 4.01 -2 3.02 -2 2 C-1.34 2 -0.68 2 0 2 C0 1.34 0 0.68 0 0 Z " fill="#6D8FF1" transform="translate(581,68)"/>
<path d="M0 0 C0.66 0 1.32 0 2 0 C3.64954167 3.10220977 5.2939881 6.20709211 6.9375 9.3125 C7.40607422 10.19357422 7.87464844 11.07464844 8.35742188 11.98242188 C8.80537109 12.82998047 9.25332031 13.67753906 9.71484375 14.55078125 C10.12855225 15.33106689 10.54226074 16.11135254 10.96850586 16.9152832 C12 19 12 19 13 22 C10.62471849 21.85796663 8.24984749 21.71148388 5.875 21.5625 C5.20984375 21.52318359 4.5446875 21.48386719 3.859375 21.44335938 C-0.15018817 21.187848 -4.04994196 20.73217587 -8 20 C-5.83836487 13.06001352 -3.1063786 6.56882431 0 0 Z " fill="#0A1AFF" transform="translate(410,661)"/>
<path d="M0 0 C8.25 0.33 16.5 0.66 25 1 C22.31591679 5.69714562 20.09211736 9.37125721 16.75 13.4375 C16.04359375 14.30246094 15.3371875 15.16742187 14.609375 16.05859375 C14.07828125 16.69925781 13.5471875 17.33992187 13 18 C7.86367183 13.3452026 3.76689771 7.80457439 0 2 C0 1.34 0 0.68 0 0 Z " fill="#0818FF" transform="translate(497,727)"/>
<path d="M0 0 C0.66 0.66 1.32 1.32 2 2 C1.62718687 8.33782325 -2.27148541 14.08513985 -6 19 C-6.309375 19.804375 -6.61875 20.60875 -6.9375 21.4375 C-8 24 -8 24 -9.77734375 26.21875 C-12.29804749 29.37295223 -14.45991289 32.65970476 -16.625 36.0625 C-17.21667969 36.97999023 -17.21667969 36.97999023 -17.8203125 37.91601562 C-19.71492427 40.87634651 -21.51616895 43.81251107 -23 47 C-25.28118789 51.821166 -27.5975676 55.85328551 -31 60 C-31.68224918 61.22058642 -32.34831843 62.45032327 -33 63.6875 C-34.89101536 66.8194942 -35.61112376 67.91071835 -39 69 C-37.47332779 64.80670093 -35.39099875 61.06421153 -33.10546875 57.25 C-32.52949196 56.27990242 -32.52949196 56.27990242 -31.94187927 55.29020691 C-30.69403596 53.19129417 -29.44083365 51.09563802 -28.1875 49 C-27.32519036 47.55128797 -26.46304941 46.10247551 -25.60107422 44.65356445 C-20.22250575 35.62958498 -14.77597723 26.65062399 -9.09838867 17.81054688 C-5.49036399 12.10649015 -2.66537995 6.19718996 0 0 Z " fill="#7591F0" transform="translate(685,91)"/>
<path d="M0 0 C5.62549439 2.33398171 7.73331863 7.33996912 10.25 12.625 C12.49422993 19.7317281 12.18354661 27.00588706 12.1875 34.375 C12.19974609 35.56867188 12.21199219 36.76234375 12.22460938 37.9921875 C12.23517172 44.35776346 11.9098993 49.91549868 10 56 C5.16508659 51.16508659 6.9343513 39.55831857 6.875 33 C6.92279181 25.97460346 7.40442255 18.99803505 8 12 C6.02 12.99 6.02 12.99 4 14 C4 10.7 4 7.4 4 4 C2.68 3.34 1.36 2.68 0 2 C0 1.34 0 0.68 0 0 Z " fill="#7A91EC" transform="translate(397,108)"/>
<path d="M0 0 C2.475 0.495 2.475 0.495 5 1 C6.44927704 5.52899075 6.81864507 10.07377631 4.9375 14.5 C1.92119864 18.39200175 -1.53842751 22.76921375 -6 25 C-8.65835737 25.12438451 -11.27905229 25.18516188 -13.9375 25.1875 C-14.66646484 25.19974609 -15.39542969 25.21199219 -16.14648438 25.22460938 C-19.9713391 25.23512685 -21.74356564 25.17095624 -25 23 C-25 22.34 -25 21.68 -25 21 C-25.66 21 -26.32 21 -27 21 C-27 20.34 -27 19.68 -27 19 C-27.66 19 -28.32 19 -29 19 C-31.1875 17.5 -31.1875 17.5 -33 15 C-33.04848891 12.17686809 -32.55936042 9.79680209 -32 7 C-30.42633683 9.36049475 -29.29362807 11.45026604 -28.125 14 C-26.53212913 17.21523935 -25.25684479 19.26980121 -22 21 C-16.29214444 22.68231532 -10.42556819 23.11105102 -5.0625 20.25 C-2.0192833 18.01416732 -1.20194575 17.40455447 0 14 C0.24172707 10.49130586 0.24172707 10.49130586 0.125 6.75 C0.10695313 5.48671875 0.08890625 4.2234375 0.0703125 2.921875 C0.04710937 1.95765625 0.02390625 0.9934375 0 0 Z " fill="#7691EE" transform="translate(574,190)"/>
<path d="M0 0 C0.99 0 1.98 0 3 0 C4.53297297 3.06594594 4.12131455 6.27111853 4.09765625 9.6328125 C4.0962413 10.38464813 4.09482635 11.13648376 4.09336853 11.91110229 C4.08776465 14.3157751 4.07521157 16.72035527 4.0625 19.125 C4.0574855 20.75390491 4.0529225 22.38281127 4.04882812 24.01171875 C4.03779397 28.00784827 4.02052679 32.00390842 4 36 C3.34 36 2.68 36 2 36 C2.03480469 36.97582031 2.06960938 37.95164063 2.10546875 38.95703125 C2.13253906 40.22933594 2.15960938 41.50164062 2.1875 42.8125 C2.22230469 44.07707031 2.25710938 45.34164062 2.29296875 46.64453125 C2 50 2 50 0.67578125 51.94921875 C-1 53 -1 53 -4 53 C-3.57122559 51.49095093 -3.57122559 51.49095093 -3.13378906 49.95141602 C-0.13637958 38.78629269 0.49835687 28.44977795 0.25 16.9375 C0.22985953 15.28062109 0.21162238 13.62371792 0.1953125 11.96679688 C0.15201618 7.977245 0.08342978 3.98890598 0 0 Z " fill="#7D93ED" transform="translate(442,124)"/>
<path d="M0 0 C24 0 24 0 27 2 C18.75 2 10.5 2 2 2 C1.67 29.06 1.34 56.12 1 84 C8.92 84 16.84 84 25 84 C25 84.33 25 84.66 25 85 C16.75 85 8.5 85 0 85 C0 56.95 0 28.9 0 0 Z " fill="#8693E8" transform="translate(360,100)"/>
<path d="M0 0 C6.44517015 6.88966464 7.46216945 14.90784387 7.3984375 23.99609375 C7.40274277 25.36822777 7.40274277 25.36822777 7.40713501 26.76808167 C7.40916167 28.6832034 7.40373059 30.59834649 7.39111328 32.51342773 C7.37490866 35.45407564 7.39107569 38.39337618 7.41015625 41.33398438 C7.40817611 43.20052387 7.4043372 45.06706253 7.3984375 46.93359375 C7.40754654 48.25380775 7.40754654 48.25380775 7.4168396 49.60069275 C7.38818359 52.06030273 7.38818359 52.06030273 7 56 C6.01 56.66 5.02 57.32 4 58 C3.97525091 51.96769509 3.95711666 45.93541985 3.94506836 39.90307617 C3.9400447 37.85163864 3.93322463 35.80020468 3.92456055 33.7487793 C3.91240888 30.7973543 3.90675196 27.84597673 3.90234375 24.89453125 C3.89718246 23.97976517 3.89202118 23.06499908 3.88670349 22.12251282 C3.88633735 17.95115808 3.93266685 14.06620692 5 10 C4.34 10 3.68 10 3 10 C3 9.34 3 8.68 3 8 C2.34 8 1.68 8 1 8 C1 6.35 1 4.7 1 3 C0.34 2.67 -0.32 2.34 -1 2 C-0.67 1.34 -0.34 0.68 0 0 Z " fill="#688EEF" transform="translate(604,145)"/>
<path d="M0 0 C1.98 0.495 1.98 0.495 4 1 C3.51202438 1.34976395 3.02404877 1.69952789 2.52128601 2.05989075 C0.23242409 4.97889622 0.64047081 7.37118022 0.65942383 11.04174805 C0.65898575 11.75419678 0.65854767 12.46664551 0.65809631 13.20068359 C0.6601857 15.55464115 0.68352285 17.90788569 0.70703125 20.26171875 C0.7126267 21.89410513 0.71689704 23.52649655 0.71989441 25.15888977 C0.7313473 29.45474158 0.76081813 33.75028896 0.79400635 38.04602051 C0.82469776 42.42972699 0.83839775 46.81348267 0.85351562 51.19726562 C0.88568755 59.79831677 0.93688907 68.39912051 1 77 C2.30195313 76.98839844 3.60390625 76.97679687 4.9453125 76.96484375 C6.67187356 76.95546027 8.39843618 76.94636066 10.125 76.9375 C10.9809375 76.92912109 11.836875 76.92074219 12.71875 76.91210938 C17.26678411 76.89461694 21.52383164 77.06807642 26 78 C22.74246076 79.93709638 20.34390072 80.23715445 16.578125 80.1953125 C15.55332031 80.18886719 14.52851563 80.18242187 13.47265625 80.17578125 C11.87744141 80.15064453 11.87744141 80.15064453 10.25 80.125 C9.17105469 80.11597656 8.09210938 80.10695313 6.98046875 80.09765625 C4.32008722 80.07411305 1.66015664 80.04122799 -1 80 C-1.02315123 70.01226384 -1.04092932 60.02453405 -1.05181217 50.03677654 C-1.05703489 45.39926393 -1.06412151 40.76176964 -1.07543945 36.12426758 C-1.08628996 31.65039197 -1.09228145 27.17653401 -1.09487724 22.70264626 C-1.09672758 20.99418675 -1.10034071 19.28572823 -1.10573006 17.57727623 C-1.11296916 15.18780795 -1.11398972 12.798413 -1.11352539 10.40893555 C-1.11712067 9.69971451 -1.12071594 8.99049347 -1.12442017 8.25978088 C-1.11801416 5.22136302 -0.96941367 2.90824101 0 0 Z " fill="#698EEF" transform="translate(363,103)"/>
<path d="M0 0 C2 2 2 2 2.5 4.1875 C1.72617684 8.54025529 -1.04570367 10.843086 -4 14 C-5.104386 15.33315167 -6.20854851 16.6664885 -7.3125 18 C-12.37951475 23.77482391 -17.85636265 28.17577128 -25 31 C-25.66 31.66 -26.32 32.32 -27 33 C-29.68839385 33.26991906 -32.29141936 33.08737357 -35 33 C-35.33 32.34 -35.66 31.68 -36 31 C-35.32195312 30.78085938 -34.64390625 30.56171875 -33.9453125 30.3359375 C-18.34403798 25.02026779 -8.72066644 17.23702336 -1.25 2.5625 C-0.63125 1.2940625 -0.63125 1.2940625 0 0 Z " fill="#7391F1" transform="translate(437,178)"/>
<path d="M0 0 C0.66 0 1.32 0 2 0 C2.99 3.96 3.98 7.92 5 12 C3.35 11.67 1.7 11.34 0 11 C-0.09796875 11.84304687 -0.1959375 12.68609375 -0.296875 13.5546875 C-0.44640625 14.65039062 -0.5959375 15.74609375 -0.75 16.875 C-0.88921875 17.96554688 -1.0284375 19.05609375 -1.171875 20.1796875 C-1.44515625 21.11039063 -1.7184375 22.04109375 -2 23 C-3.3287289 23.67579711 -4.66189377 24.3429658 -6 25 C-6.5920414 27.58654429 -6.5920414 27.58654429 -6.5625 30.5 C-6.62890625 33.46875 -6.62890625 33.46875 -7 36 C-7.99 36.66 -8.98 37.32 -10 38 C-11.33584636 33.99246091 -10.13051679 31.19746263 -8.9453125 27.3046875 C-8.72430878 26.55663849 -8.50330505 25.80858948 -8.27560425 25.03787231 C-7.80709836 23.45812085 -7.3344259 21.87959996 -6.85791016 20.30224609 C-6.12649045 17.87993607 -5.40788053 15.45411149 -4.69140625 13.02734375 C-4.2351194 11.49456987 -3.77811271 9.96201006 -3.3203125 8.4296875 C-3.10359894 7.70055145 -2.88688538 6.97141541 -2.66360474 6.22018433 C-1.11680285 1.11680285 -1.11680285 1.11680285 0 0 Z " fill="#7690F0" transform="translate(513,103)"/>
<path d="M0 0 C0.66 0.33 1.32 0.66 2 1 C1.63390625 1.52722656 1.2678125 2.05445312 0.890625 2.59765625 C-4.78405016 11.12318012 -9.35882053 20.18313092 -14.03515625 29.28125 C-16.92997211 34.90601783 -19.94581159 40.46044128 -23 46 C-23.66 45.67 -24.32 45.34 -25 45 C-25 44.01 -25 43.02 -25 42 C-24.34 42 -23.68 42 -23 42 C-23 40.68 -23 39.36 -23 38 C-22.34 38 -21.68 38 -21 38 C-20.87625 37.236875 -20.7525 36.47375 -20.625 35.6875 C-20 33 -20 33 -18 30 C-17.690625 29.01 -17.38125 28.02 -17.0625 27 C-16.00650591 24.01836964 -15.19695607 23.10143624 -13 21 C-12.835 20.29875 -12.67 19.5975 -12.5 18.875 C-12.335 18.25625 -12.17 17.6375 -12 17 C-11.01 16.67 -10.02 16.34 -9 16 C-8.67 13.36 -8.34 10.72 -8 8 C-7.01 8 -6.02 8 -5 8 C-4.9175 7.4225 -4.835 6.845 -4.75 6.25 C-3.79468987 3.3840696 -2.21530827 2.0009236 0 0 Z " fill="#7591F0" transform="translate(658,77)"/>
<path d="M0 0 C0.33 0 0.66 0 1 0 C1.08923649 3.83716913 0.85513054 7.25880387 0 11 C0 11.33 0 11.66 0 12 C7.92 12 15.84 12 24 12 C24 9.69 24 7.38 24 5 C24.66 4.01 25.32 3.02 26 2 C26.50512244 3.60256108 27.00391627 5.20711792 27.5 6.8125 C27.91765625 8.15248047 27.91765625 8.15248047 28.34375 9.51953125 C29 12 29 12 29 15 C18.11 15 7.22 15 -4 15 C-1 3 -1 3 0 0 Z " fill="#7E91EC" transform="translate(501,141)"/>
<path d="M0 0 C0 0.66 0 1.32 0 2 C-1.16395331 2.78604639 -2.35793856 3.52772028 -3.5625 4.25 C-12.24821613 10.5375361 -15.77474567 23.18400856 -19 33 C-19.66 32.67 -20.32 32.34 -21 32 C-21.4140625 29.93359375 -21.4140625 29.93359375 -21.625 27.4375 C-21.69976562 26.61121094 -21.77453125 25.78492187 -21.8515625 24.93359375 C-21.92503906 23.97646484 -21.92503906 23.97646484 -22 23 C-20.35 22.67 -18.7 22.34 -17 22 C-17 19.36 -17 16.72 -17 14 C-16.38125 13.79375 -15.7625 13.5875 -15.125 13.375 C-12.15346355 11.45224112 -11.86975341 9.33405473 -11 6 C-10.34 6 -9.68 6 -9 6 C-9 5.34 -9 4.68 -9 4 C-8.34 4 -7.68 4 -7 4 C-6.67 3.01 -6.34 2.02 -6 1 C-3 0 -3 0 0 0 Z " fill="#6E8FF1" transform="translate(502,73)"/>
<path d="M0 0 C2.5654594 2.5654594 2.54046087 4.47686668 3 8 C3.66 8 4.32 8 5 8 C5 8.66 5 9.32 5 10 C5.66 10.33 6.32 10.66 7 11 C7 12.65 7 14.3 7 16 C7.66 16 8.32 16 9 16 C9 16.66 9 17.32 9 18 C9.66 18.33 10.32 18.66 11 19 C11 20.65 11 22.3 11 24 C11.66 24 12.32 24 13 24 C15.1519437 27.22791555 15.20086443 28.28400809 15 32 C16.65 31.67 18.3 31.34 20 31 C20.33 31.66 20.66 32.32 21 33 C19.5625 35.625 19.5625 35.625 18 38 C15.17820749 35.51669664 13.7036656 32.81698046 12.00390625 29.484375 C11.44509766 28.39769531 10.88628906 27.31101562 10.31054688 26.19140625 C9.73369141 25.05574219 9.15683594 23.92007813 8.5625 22.75 C7.41926189 20.51496307 6.27476304 18.28057051 5.12890625 16.046875 C4.59152832 14.99693359 4.05415039 13.94699219 3.50048828 12.86523438 C2.25134568 10.47995329 0.95476628 8.14807258 -0.41015625 5.828125 C-2 3 -2 3 -2 1 C-1.34 0.67 -0.68 0.34 0 0 Z " fill="#758FF0" transform="translate(612,93)"/>
<path d="M0 0 C0.79341797 -0.00128906 1.58683594 -0.00257812 2.40429688 -0.00390625 C3.64083008 0.00189453 3.64083008 0.00189453 4.90234375 0.0078125 C5.73056641 0.00394531 6.55878906 0.00007813 7.41210938 -0.00390625 C8.60030273 -0.00197266 8.60030273 -0.00197266 9.8125 0 C10.89930054 0.00169189 10.89930054 0.00169189 12.00805664 0.00341797 C13.83984375 0.1328125 13.83984375 0.1328125 15.83984375 1.1328125 C15.46484375 3.0703125 15.46484375 3.0703125 14.83984375 5.1328125 C12.38709234 6.3591882 10.78926565 6.24696564 8.05078125 6.23046875 C7.10976563 6.22724609 6.16875 6.22402344 5.19921875 6.22070312 C4.214375 6.21232422 3.22953125 6.20394531 2.21484375 6.1953125 C1.22226562 6.19080078 0.2296875 6.18628906 -0.79296875 6.18164062 C-3.24875785 6.16983395 -5.70442729 6.1533665 -8.16015625 6.1328125 C-7.83015625 4.4828125 -7.50015625 2.8328125 -7.16015625 1.1328125 C-4.4303871 0.22288945 -2.80926651 0.00436657 0 0 Z " fill="#7392EF" transform="translate(511.16015625,67.8671875)"/>
<path d="M0 0 C1.125 3.75 1.125 3.75 0 6 C-20.13 6 -40.26 6 -61 6 C-61.33 5.01 -61.66 4.02 -62 3 C-61.25275665 3.00666183 -60.50551331 3.01332367 -59.73562622 3.02018738 C-52.70196226 3.08023762 -45.66838672 3.12594321 -38.63453865 3.15543652 C-35.0181296 3.17110901 -31.40193192 3.19237553 -27.78564453 3.22631836 C-24.29730012 3.25885631 -20.80915932 3.27684108 -17.3206749 3.28463173 C-15.33856231 3.29289269 -13.35653191 3.31632087 -11.37454224 3.33988953 C-10.17344818 3.34011612 -8.97235413 3.34034271 -7.73486328 3.34057617 C-6.67341095 3.34723801 -5.61195862 3.35389984 -4.51834106 3.36076355 C-3.68728851 3.24171158 -2.85623596 3.12265961 -2 3 C-1.34 2.01 -0.68 1.02 0 0 Z " fill="#668EEF" transform="translate(399,210)"/>
<path d="M0 0 C2.4609375 0.2734375 2.4609375 0.2734375 4.4609375 1.2734375 C4.4609375 2.9234375 4.4609375 4.5734375 4.4609375 6.2734375 C3.51734375 6.11294922 3.51734375 6.11294922 2.5546875 5.94921875 C-3.80904132 5.05791336 -7.70769264 5.57372923 -13.5390625 8.2734375 C-10.95181256 0.51168769 -7.69574463 -0.2682163 0 0 Z " fill="#668EF0" transform="translate(674.5390625,67.7265625)"/>
<path d="M0 0 C0.99 0 1.98 0 3 0 C3 0.66 3 1.32 3 2 C3.66 2 4.32 2 5 2 C5 2.66 5 3.32 5 4 C5.66 4 6.32 4 7 4 C8.36176922 5.64351457 9.68962066 7.31522656 11 9 C11.886875 9.845625 12.77375 10.69125 13.6875 11.5625 C15.88449912 13.87825583 16.65571773 14.90145954 17 18 C17.66 18 18.32 18 19 18 C19 19.32 19 20.64 19 22 C19.66 22 20.32 22 21 22 C21 23.32 21 24.64 21 26 C20.34 26 19.68 26 19 26 C18.48953125 24.96552734 18.48953125 24.96552734 17.96875 23.91015625 C13.32686829 14.91033772 7.91031829 7.12343302 -1 2 C-0.67 1.34 -0.34 0.68 0 0 Z " fill="#7891EF" transform="translate(418,81)"/>
<path d="M0 0 C1.18681726 3.56045177 1.09689832 6.43808337 1.0625 10.1875 C1.05347656 11.45980469 1.04445313 12.73210937 1.03515625 14.04296875 C1.02355469 15.01878906 1.01195312 15.99460938 1 17 C-0.65 16.67 -2.3 16.34 -4 16 C-4.22304441 14.25181409 -4.4278645 12.50129677 -4.625 10.75 C-4.74101562 9.77546875 -4.85703125 8.8009375 -4.9765625 7.796875 C-5.00148066 4.82330767 -4.71293696 3.40916295 -3 1 C-2.01 0.67 -1.02 0.34 0 0 Z " fill="#7791EE" transform="translate(453,189)"/>
<path d="M0 0 C0.33 0 0.66 0 1 0 C1.02505615 0.93384521 1.0501123 1.86769043 1.07592773 2.82983398 C1.17086928 6.28325189 1.27011258 9.7364896 1.37231445 13.18969727 C1.41571813 14.68639269 1.45738913 16.18313939 1.49731445 17.67993164 C1.55488616 19.82714312 1.61861716 21.97409521 1.68359375 24.12109375 C1.72025146 25.4145874 1.75690918 26.70808105 1.79467773 28.04077148 C1.6667278 30.88555008 1.6667278 30.88555008 3 32 C3.203125 34.21484375 3.203125 34.21484375 3.25 36.9375 C3.27578125 37.83339844 3.3015625 38.72929687 3.328125 39.65234375 C3.16570313 40.81443359 3.16570313 40.81443359 3 42 C2.01 42.66 1.02 43.32 0 44 C0 29.48 0 14.96 0 0 Z " fill="#4084DC" transform="translate(8,245)"/>
<path d="M0 0 C0.7734375 0.00644531 1.546875 0.01289062 2.34375 0.01953125 C4.5 0.1875 4.5 0.1875 7.5 1.1875 C7.5 2.1775 7.5 3.1675 7.5 4.1875 C10.14 4.5175 12.78 4.8475 15.5 5.1875 C15.5 6.5075 15.5 7.8275 15.5 9.1875 C12.48487159 8.18545285 9.47204599 7.17796614 6.46484375 6.15234375 C5.46582031 5.81332031 4.46679688 5.47429687 3.4375 5.125 C2.43589844 4.78339844 1.43429687 4.44179687 0.40234375 4.08984375 C-2.22576662 3.27275964 -4.79297224 2.66930127 -7.5 2.1875 C-4.35388747 0.09009164 -3.58811922 -0.06578219 0 0 Z " fill="#7A95F0" transform="translate(401.5,72.8125)"/>
<path d="M0 0 C1.32 0.33 2.64 0.66 4 1 C4.33 4.3 4.66 7.6 5 11 C5.66 11 6.32 11 7 11 C7.33 11.66 7.66 12.32 8 13 C8.66 13.33 9.32 13.66 10 14 C9.67 14.33 9.34 14.66 9 15 C8.63239269 17.32817964 8.29758419 19.6618385 8 22 C5.87738924 19.87738924 5.41288502 18.73100098 4.4921875 15.9375 C4.22792969 15.14085938 3.96367188 14.34421875 3.69140625 13.5234375 C3.42199219 12.69070312 3.15257812 11.85796875 2.875 11 C2.59785156 10.16726562 2.32070313 9.33453125 2.03515625 8.4765625 C0 2.28086515 0 2.28086515 0 0 Z " fill="#7791EF" transform="translate(546,106)"/>
<path d="M0 0 C-1.97869342 6.92542696 -5.03264094 11.86875142 -11 16 C-11.99 16.33 -12.98 16.66 -14 17 C-13.505 15.515 -13.505 15.515 -13 14 C-12.34 14 -11.68 14 -11 14 C-11 13.34 -11 12.68 -11 12 C-10.34 12 -9.68 12 -9 12 C-8.71125 11.38125 -8.4225 10.7625 -8.125 10.125 C-7 8 -7 8 -5 6 C-4.83312552 3.41645782 -4.83312552 3.41645782 -5 1 C-3 0 -3 0 0 0 Z " fill="#7B92EF" transform="translate(406,165)"/>
<path d="M0 0 C0 0.66 0 1.32 0 2 C-4.38461538 5 -4.38461538 5 -7 5 C-8.66489182 8.92438786 -9.87204037 12.89100419 -11 17 C-11.66 17 -12.32 17 -13 17 C-13.28571429 9.57142857 -13.28571429 9.57142857 -11 6 C-10.34 6 -9.68 6 -9 6 C-8.67 4.35 -8.34 2.7 -8 1 C-5.10765685 0.17361624 -3.11257569 0 0 0 Z " fill="#7291F1" transform="translate(338,73)"/>
<path d="M0 0 C0.33 0 0.66 0 1 0 C1.33931227 2.66602496 1.67157176 5.33263014 2 8 C2.14308594 9.11568359 2.14308594 9.11568359 2.2890625 10.25390625 C2.89227676 15.20888051 3.09075591 20.00842496 3 25 C-1.80031312 19.15614055 -1.2735505 13.29117301 -1 6 C-0.72756589 3.99079847 -0.42849573 1.98179275 0 0 Z " fill="#3D83D9" transform="translate(1011,198)"/>
<path d="M0 0 C0.66 0 1.32 0 2 0 C2.495 2.97 2.495 2.97 3 6 C-7.89 6 -18.78 6 -30 6 C-30 5.34 -30 4.68 -30 4 C-20.1 4 -10.2 4 0 4 C0 2.68 0 1.36 0 0 Z " fill="#8990E6" transform="translate(527,150)"/>
<path d="M0 0 C0.33 0 0.66 0 1 0 C1.49882898 4.1901634 1.19920015 5.71226646 -1.25 9.25 C-4.66681567 12.66681567 -6.38167472 13.90227504 -11.234375 14.1953125 C-12.39453125 14.17210937 -13.5546875 14.14890625 -14.75 14.125 C-15.92046875 14.10695312 -17.0909375 14.08890625 -18.296875 14.0703125 C-19.63492188 14.03550781 -19.63492188 14.03550781 -21 14 C-21 13.67 -21 13.34 -21 13 C-17.04 13 -13.08 13 -9 13 C-8.67 12.01 -8.34 11.02 -8 10 C-6.48303867 8.77352063 -4.96507932 7.54813812 -3.43359375 6.33984375 C-1.4657602 4.50069686 -0.73091325 2.55819637 0 0 Z " fill="#6B8DF1" transform="translate(645,201)"/>
<path d="M0 0 C0.66 0 1.32 0 2 0 C2.10957031 0.85722656 2.21914063 1.71445313 2.33203125 2.59765625 C3.20241662 8.87433778 4.10533931 14.3422541 7 20 C6.01 20.33 5.02 20.66 4 21 C4 20.01 4 19.02 4 18 C3.34 18 2.68 18 2 18 C-0.61281488 12.12116651 -0.18328202 6.29268272 0 0 Z " fill="#7A90EE" transform="translate(571,82)"/>
<path d="M0 0 C0.66 0 1.32 0 2 0 C2.99 3.96 3.98 7.92 5 12 C3.35 11.67 1.7 11.34 0 11 C0.33 9.68 0.66 8.36 1 7 C0.01 7 -0.98 7 -2 7 C-1.125 1.125 -1.125 1.125 0 0 Z " fill="#B48ACF" transform="translate(513,103)"/>
<path d="M0 0 C1.57554035 2.88628401 2.46276373 5.53342384 3.125 8.75 C3.29257812 9.54921875 3.46015625 10.3484375 3.6328125 11.171875 C3.81457031 12.07679688 3.81457031 12.07679688 4 13 C3.01 13.495 3.01 13.495 2 14 C1.01 13.67 0.02 13.34 -1 13 C-1.02708567 11.39592672 -1.04643483 9.7917215 -1.0625 8.1875 C-1.07410156 7.29417969 -1.08570313 6.40085937 -1.09765625 5.48046875 C-1 3 -1 3 0 0 Z " fill="#7893EF" transform="translate(518,116)"/>
<path d="M0 0 C0.66 0.33 1.32 0.66 2 1 C2.4140625 3.72265625 2.4140625 3.72265625 2.625 7.0625 C2.69976562 8.16722656 2.77453125 9.27195313 2.8515625 10.41015625 C2.90054687 11.26480469 2.94953125 12.11945313 3 13 C1.02 13.99 1.02 13.99 -1 15 C-1.09038099 9.84828377 -0.84681133 5.08086796 0 0 Z " fill="#5C90F3" transform="translate(12,207)"/>
<path d="M0 0 C1.98042945 3.9608589 2.76083382 6.61528664 3 11 C1.75 12.9375 1.75 12.9375 0 14 C-0.99 14 -1.98 14 -3 14 C-2.01 9.38 -1.02 4.76 0 0 Z " fill="#7C96EF" transform="translate(441,163)"/>
<path d="M0 0 C1.65 0 3.3 0 5 0 C6.35015859 4.05047576 5.62084998 6.7920168 5 11 C4.34 11 3.68 11 3 11 C2.01 7.37 1.02 3.74 0 0 Z " fill="#7290F0" transform="translate(562,153)"/>
<path d="M0 0 C1.15957207 3.47871621 0.77456651 4.34219645 -0.4375 7.6875 C-0.72496094 8.49574219 -1.01242187 9.30398437 -1.30859375 10.13671875 C-1.53675781 10.75160156 -1.76492188 11.36648437 -2 12 C-4.79908133 9.20091867 -4.72362983 6.86918237 -5 3 C-3 1 -3 1 0 0 Z " fill="#6E8EF0" transform="translate(481,106)"/>
<path d="M0 0 C3 3.75 3 3.75 3 6 C3.66 6 4.32 6 5 6 C7.1519437 9.22791555 7.20086443 10.28400809 7 14 C6.34 14 5.68 14 5 14 C4.0204042 12.20856793 3.0413367 10.41684696 2.0625 8.625 C1.51722656 7.62726563 0.97195313 6.62953125 0.41015625 5.6015625 C-0.4149759 4.07929654 -1.22564391 2.54871217 -2 1 C-1.34 0.67 -0.68 0.34 0 0 Z " fill="#7692F0" transform="translate(536,79)"/>
<path d="M0 0 C0.99 0 1.98 0 3 0 C3 0.66 3 1.32 3 2 C3.99 2 4.98 2 6 2 C5.67 4.97 5.34 7.94 5 11 C3 10 3 10 2.1484375 7.71484375 C1.89320313 6.79832031 1.63796875 5.88179687 1.375 4.9375 C1.11460937 4.01839844 0.85421875 3.09929687 0.5859375 2.15234375 C0.39257812 1.44207031 0.19921875 0.73179687 0 0 Z " fill="#728FEF" transform="translate(566,165)"/>
<path d="M0 0 C1.90318884 2.85478326 2.4619099 4.41941308 3.125 7.6875 C3.29257812 8.49574219 3.46015625 9.30398437 3.6328125 10.13671875 C3.75398437 10.75160156 3.87515625 11.36648437 4 12 C2.35 12.33 0.7 12.66 -1 13 C-0.67 8.71 -0.34 4.42 0 0 Z " fill="#7F94EE" transform="translate(522,130)"/>
<path d="M0 0 C2.45823172 3.68734758 3.01242616 6.69699971 4 11 C2.68 11.33 1.36 11.66 0 12 C-1.1671568 8.49852959 -1.13357453 5.67329964 -1 2 C-0.67 1.34 -0.34 0.68 0 0 Z " fill="#7A93EE" transform="translate(538,185)"/>
<path d="M0 0 C1.65 0 3.3 0 5 0 C6.2380014 3.57644848 5.74926071 6.33694766 5 10 C4.34 10 3.68 10 3 10 C2.01 6.7 1.02 3.4 0 0 Z " fill="#6E8EF0" transform="translate(570,177)"/>
<path d="M0 0 C1.15957207 3.47871621 0.77456651 4.34219645 -0.4375 7.6875 C-0.86869141 8.89986328 -0.86869141 8.89986328 -1.30859375 10.13671875 C-1.53675781 10.75160156 -1.76492188 11.36648437 -2 12 C-4 10 -4 10 -4.1953125 7.8359375 C-4.17210937 7.02382812 -4.14890625 6.21171875 -4.125 5.375 C-4.10695313 4.55773437 -4.08890625 3.74046875 -4.0703125 2.8984375 C-4.04710937 2.27195313 -4.02390625 1.64546875 -4 1 C-2.68 0.67 -1.36 0.34 0 0 Z " fill="#7390F0" transform="translate(457,177)"/>
<path d="M0 0 C0.99 0.66 1.98 1.32 3 2 C2.01 4.97 1.02 7.94 0 11 C-0.66 10.67 -1.32 10.34 -2 10 C-2 7.03 -2 4.06 -2 1 C-1.34 0.67 -0.68 0.34 0 0 Z " fill="#718DEF" transform="translate(467,142)"/>
<path d="M0 0 C1.15957207 3.47871621 0.77456651 4.34219645 -0.4375 7.6875 C-0.86869141 8.89986328 -0.86869141 8.89986328 -1.30859375 10.13671875 C-1.53675781 10.75160156 -1.76492188 11.36648437 -2 12 C-4 10 -4 10 -4.08203125 8.125 C-3.99308594 7.42375 -3.90414063 6.7225 -3.8125 6 C-3.73644531 5.29875 -3.66039062 4.5975 -3.58203125 3.875 C-3 2 -3 2 0 0 Z " fill="#708EF0" transform="translate(465,153)"/>
<path d="M0 0 C0.33 0.66 0.66 1.32 1 2 C1.66 2 2.32 2 3 2 C3 4.97 3 7.94 3 11 C2.34 11 1.68 11 1 11 C0.01 7.7 -0.98 4.4 -2 1 C-1.34 0.67 -0.68 0.34 0 0 Z " fill="#748FEF" transform="translate(560,141)"/>
<path d="M0 0 C1.32 0 2.64 0 4 0 C2.515 5.445 2.515 5.445 1 11 C0.34 10.34 -0.32 9.68 -1 9 C-0.9765625 6.8359375 -0.9765625 6.8359375 -0.625 4.375 C-0.51414062 3.55773437 -0.40328125 2.74046875 -0.2890625 1.8984375 C-0.19367188 1.27195313 -0.09828125 0.64546875 0 0 Z " fill="#7691EF" transform="translate(470,131)"/>
<path d="M0 0 C0.99 0.33 1.98 0.66 3 1 C3 4.63 3 8.26 3 12 C1 11 1 11 0.1484375 8.71484375 C-0.10679687 7.79832031 -0.36203125 6.88179687 -0.625 5.9375 C-0.88539063 5.01839844 -1.14578125 4.09929687 -1.4140625 3.15234375 C-1.60742188 2.44207031 -1.80078125 1.73179687 -2 1 C-1.34 0.67 -0.68 0.34 0 0 Z " fill="#708EF0" transform="translate(556,129)"/>
<path d="M0 0 C1.27617188 0.02320312 2.55234375 0.04640625 3.8671875 0.0703125 C5.78917969 0.09738281 5.78917969 0.09738281 7.75 0.125 C9.23113281 0.15980469 9.23113281 0.15980469 10.7421875 0.1953125 C10.7421875 0.8553125 10.7421875 1.5153125 10.7421875 2.1953125 C9.906875 2.14310547 9.906875 2.14310547 9.0546875 2.08984375 C3.19517712 1.8819895 -0.8878461 2.85205443 -6.2578125 5.1953125 C-4.90001935 1.12193306 -4.35578777 0.26113836 0 0 Z " fill="#7B91EE" transform="translate(667.2578125,70.8046875)"/>
<path d="M0 0 C-1.485 5.445 -1.485 5.445 -3 11 C-3.66 10.67 -4.32 10.34 -5 10 C-4.88637738 8.5199159 -4.75877092 7.04089926 -4.625 5.5625 C-4.55539062 4.73878906 -4.48578125 3.91507813 -4.4140625 3.06640625 C-4.27742188 2.38449219 -4.14078125 1.70257813 -4 1 C-2 0 -2 0 0 0 Z " fill="#7690EF" transform="translate(462,166)"/>
<path d="M0 0 C1.98 0.495 1.98 0.495 4 1 C3.01 3.97 2.02 6.94 1 10 C-1 8 -1 8 -1.1875 4.4375 C-1 1 -1 1 0 0 Z " fill="#7590EE" transform="translate(474,120)"/>
<path d="M0 0 C0.99 0 1.98 0 3 0 C4.42258812 3.82320557 5.24042276 6.91281305 5 11 C4.34 11 3.68 11 3 11 C2.01 7.37 1.02 3.74 0 0 Z " fill="#758FEF" transform="translate(542,94)"/>
<path d="M0 0 C1.8125 0.5 1.8125 0.5 4 2 C5.45107954 4.56338565 6.42321184 7.11034841 7 10 C6.1875 12.5 6.1875 12.5 5 14 C4.67 14 4.34 14 4 14 C4 10.7 4 7.4 4 4 C2.68 3.34 1.36 2.68 0 2 C0 1.34 0 0.68 0 0 Z " fill="#688CF2" transform="translate(397,108)"/>
<path d="M0 0 C7 8.44827586 7 8.44827586 7 12 C5.68 11.34 4.36 10.68 3 10 C3 8.68 3 7.36 3 6 C2.34 6 1.68 6 1 6 C0.67 4.02 0.34 2.04 0 0 Z " fill="#7A93F0" transform="translate(590,122)"/>
<path d="M0 0 C0.99 0 1.98 0 3 0 C2.34 3.3 1.68 6.6 1 10 C0.67 10 0.34 10 0 10 C-0.19412181 8.52168779 -0.38012131 7.04230684 -0.5625 5.5625 C-0.66691406 4.73878906 -0.77132813 3.91507812 -0.87890625 3.06640625 C-0.91886719 2.38449219 -0.95882813 1.70257813 -1 1 C-0.67 0.67 -0.34 0.34 0 0 Z " fill="#7291EF" transform="translate(441,111)"/>
<path d="M0 0 C0.33 0 0.66 0 1 0 C1 3.3 1 6.6 1 10 C0.01 10.33 -0.98 10.66 -2 11 C-1.85957123 9.35369672 -1.71250671 7.70795821 -1.5625 6.0625 C-1.48128906 5.14597656 -1.40007813 4.22945312 -1.31640625 3.28515625 C-1 1 -1 1 0 0 Z " fill="#4889E5" transform="translate(17,174)"/>
<path d="M0 0 C0.33 0 0.66 0 1 0 C1.08159574 4.16138263 0.98248524 7.9472484 0 12 C-0.99 12 -1.98 12 -3 12 C-2.01 8.04 -1.02 4.08 0 0 Z " fill="#8899ED" transform="translate(509,114)"/>
<path d="M0 0 C2.625 0.375 2.625 0.375 5 1 C5.33 2.98 5.66 4.96 6 7 C3.36 5.35 0.72 3.7 -2 2 C-1.34 1.34 -0.68 0.68 0 0 Z " fill="#7795F2" transform="translate(528,73)"/>
<path d="M0 0 C2.18975773 3.28463659 2.99806563 6.20696275 4 10 C3.01 10 2.02 10 1 10 C-0.1577506 6.52674819 -0.06866652 3.63932552 0 0 Z " fill="#8196EF" transform="translate(326,196)"/>
<path d="M0 0 C0.33 0 0.66 0 1 0 C0.67 3.3 0.34 6.6 0 10 C-0.99 10.33 -1.98 10.66 -3 11 C-2.01 7.37 -1.02 3.74 0 0 Z " fill="#8798EE" transform="translate(489,182)"/>
<path d="M0 0 C2.91517292 1.07401108 4.77810176 1.77810176 7 4 C5.1875 4.625 5.1875 4.625 3 5 C2.01 4.34 1.02 3.68 0 3 C0 2.01 0 1.02 0 0 Z " fill="#7B91EE" transform="translate(389,102)"/>
<path d="M0 0 C2 2 2 2 2.125 5.625 C2.08375 6.73875 2.0425 7.8525 2 9 C-0.15377564 6.37801226 -1.40072174 4.35595828 -2 1 C-1.34 0.67 -0.68 0.34 0 0 Z " fill="#7994F1" transform="translate(612,93)"/>
<path d="M0 0 C4.42857143 5.14285714 4.42857143 5.14285714 5 9 C3.68 8.67 2.36 8.34 1 8 C1 6.35 1 4.7 1 3 C0.34 2.67 -0.32 2.34 -1 2 C-0.67 1.34 -0.34 0.68 0 0 Z " fill="#7A92EF" transform="translate(604,145)"/>
<path d="M0 0 C0.99 0 1.98 0 3 0 C2.01 3.3 1.02 6.6 0 10 C-0.33 10 -0.66 10 -1 10 C-0.67 6.7 -0.34 3.4 0 0 Z " fill="#7D91EE" transform="translate(483,96)"/>
<path d="M0 0 C2.475 0.495 2.475 0.495 5 1 C5.33 3.31 5.66 5.62 6 8 C3.87961365 5.38485683 1.86908256 2.80362384 0 0 Z " fill="#7593F2" transform="translate(680,74)"/>
<path d="M0 0 C0.33 0 0.66 0 1 0 C1.25 2.8125 1.25 2.8125 1 6 C-1 7.875 -1 7.875 -3 9 C-3.66 8.67 -4.32 8.34 -5 8 C-4.360625 7.236875 -3.72125 6.47375 -3.0625 5.6875 C-0.85767219 3.11753287 -0.85767219 3.11753287 0 0 Z " fill="#7E99F2" transform="translate(645,201)"/>
<path d="M0 0 C0.66 0 1.32 0 2 0 C2.33 1.98 2.66 3.96 3 6 C1.35 6 -0.3 6 -2 6 C-1.34 4.02 -0.68 2.04 0 0 Z " fill="#A48FDB" transform="translate(527,150)"/>
<path d="M0 0 C2.0625 2.3125 2.0625 2.3125 4 5 C3.67 5.99 3.34 6.98 3 8 C2.34 8 1.68 8 1 8 C0.26919734 6.02253397 -0.39421747 4.01927511 -1 2 C-0.67 1.34 -0.34 0.68 0 0 Z " fill="#7B92F0" transform="translate(598,135)"/>
<path d="M0 0 C1.65 0 3.3 0 5 0 C4.34 1.65 3.68 3.3 3 5 C1.5 3.625 1.5 3.625 0 2 C0 1.34 0 0.68 0 0 Z " fill="#AD83D1" transform="translate(627,126)"/>
</svg>
